<?xml version="1.0" encoding="utf-8"?>
<!-- Generator: Adobe Illustrator 17.0.0, SVG Export Plug-In . SVG Version: 6.00 Build 0)  -->
<!DOCTYPE svg PUBLIC "-//W3C//DTD SVG 1.1//EN" "http://www.w3.org/Graphics/SVG/1.1/DTD/svg11.dtd">
<svg version="1.1" id="Camada_1" xmlns="http://www.w3.org/2000/svg" xmlns:xlink="http://www.w3.org/1999/xlink" x="0px" y="0px"
	 width="512px" height="512px" viewBox="0 0 512 512" enable-background="new 0 0 512 512" xml:space="preserve">
<path fill="#FFFFFF" d="M297.327,462.388c0-133.419,0-265.46,0-397.651c-31.065,13.803-64.169,16.622-96.869,21.026
	c-18.138,2.443-36.438,3.675-54.663,5.478c-1.456,0.144-2.893,0.48-4.675,0.784c-0.477,50.718,1.346,101.07,6.067,151.139
	c-11.26,1.057-21.959,2.061-33.254,3.121c-0.869-8.365-1.925-17.085-2.659-25.831c-4.487-53.501-6.043-107.109-5.988-160.785
	c0.005-5.155,1.696-6.109,6.422-6.621c36.399-3.948,72.863-7.535,109.089-12.747c20.328-2.924,40.307-8.457,60.301-13.394
	c5.842-1.443,11.191-4.878,17.202-7.597c19.608,11.223,42.392,14.759,64.971,18.606c43.52,7.415,87.361,12.29,131.41,15.269
	c0.478,0.032,0.947,0.218,1.773,0.417c0.108,1.389,0.308,2.834,0.319,4.281c0.45,58.85-1.304,117.625-7.068,176.212
	c-3.602,36.617-8.555,73.051-19.341,108.416c-9.376,30.74-27.432,56.047-49.66,78.603c-34.869,35.385-75.803,62.246-120.059,84.3
	c-1.512,0.753-4.089,1.026-5.414,0.244c-17.473-10.325-34.811-20.877-52.172-31.39c-0.4-0.242-0.676-0.689-0.863-0.887
	c7.21-10.021,14.359-19.96,21.747-30.229C274.476,449.22,285.476,455.558,297.327,462.388z"/>
<path fill="#FFFFFF" d="M147.949,479.951C88.67,479.935,41.012,432.199,41.06,372.889c0.047-59.223,47.855-106.866,107.184-106.813
	c58.897,0.052,106.673,47.9,106.684,106.843C254.939,432.186,207.181,479.968,147.949,479.951z M146.888,443.712
	c13.982,0,27.967,0.155,41.947-0.042c15.208-0.214,25.651-11.482,24.41-26.631c-1.736-21.182-11.605-38.98-24.475-55.244
	c-4.359-5.509-10.75-6.385-17.289-4.218c-4.247,1.407-8.33,3.318-12.459,5.069c-8.902,3.776-17.684,4.125-26.428-0.559
	c-2.923-1.566-5.963-2.946-9.04-4.186c-7.595-3.059-14.232-1.559-19.184,4.885c-11.17,14.536-19.674,30.409-22.965,48.686
	c-3.437,19.088,8.495,33.048,26.536,32.345C120.905,443.313,133.905,443.719,146.888,443.712z M117.51,323.271
	c0.482,3.276,0.708,6.614,1.491,9.816c3.247,13.278,14.234,23.242,26.195,23.978c12.997,0.8,24.357-7.041,29.199-20.515
	c4.468-12.435,3.046-24.335-4.738-35.062c-11.205-15.44-32.13-15.789-44.075-0.929C120.281,307.156,117.78,314.761,117.51,323.271z"
	/>
</svg>
