<?xml version="1.0" encoding="utf-8"?>
<!-- Generator: Adobe Illustrator 17.0.0, SVG Export Plug-In . SVG Version: 6.00 Build 0)  -->
<!DOCTYPE svg PUBLIC "-//W3C//DTD SVG 1.1//EN" "http://www.w3.org/Graphics/SVG/1.1/DTD/svg11.dtd">
<svg version="1.1" id="Camada_1" xmlns="http://www.w3.org/2000/svg" xmlns:xlink="http://www.w3.org/1999/xlink" x="0px" y="0px"
	 width="220px" height="56px" viewBox="0 0 220 56" enable-background="new 0 0 220 56" xml:space="preserve">
<g>
	<path fill="#FFFFFF" d="M24.751,21.748c-0.102,1.076-0.499,1.915-1.191,2.518c-0.693,0.603-1.614,0.904-2.764,0.904
		c-0.803,0-1.511-0.191-2.123-0.572c-0.612-0.381-1.084-0.922-1.417-1.624c-0.333-0.702-0.506-1.517-0.52-2.445v-0.942
		c0-0.951,0.168-1.789,0.506-2.514c0.337-0.725,0.821-1.284,1.451-1.676c0.63-0.392,1.359-0.589,2.185-0.589
		c1.113,0,2.009,0.301,2.688,0.904c0.679,0.603,1.074,1.456,1.185,2.559h-1.746c-0.083-0.725-0.295-1.248-0.634-1.569
		c-0.339-0.321-0.837-0.481-1.493-0.481c-0.762,0-1.347,0.278-1.756,0.835s-0.618,1.374-0.627,2.451v0.894
		c0,1.091,0.195,1.923,0.585,2.496c0.39,0.573,0.962,0.86,1.714,0.86c0.688,0,1.205-0.155,1.552-0.464
		c0.346-0.309,0.566-0.824,0.658-1.545H24.751z"/>
	<path fill="#FFFFFF" d="M34.365,20.252c0,0.988-0.171,1.855-0.513,2.601c-0.342,0.746-0.83,1.318-1.465,1.718
		c-0.635,0.399-1.366,0.599-2.192,0.599c-0.817,0-1.546-0.2-2.185-0.599c-0.64-0.399-1.134-0.969-1.482-1.707
		c-0.349-0.739-0.525-1.591-0.53-2.556v-0.568c0-0.984,0.174-1.852,0.523-2.604c0.349-0.753,0.84-1.329,1.476-1.728
		c0.635-0.399,1.363-0.599,2.185-0.599c0.822,0,1.55,0.197,2.185,0.592c0.635,0.395,1.126,0.963,1.472,1.704
		c0.346,0.741,0.522,1.604,0.526,2.587V20.252z M32.613,19.725c0-1.118-0.211-1.974-0.634-2.57
		c-0.423-0.596-1.022-0.894-1.798-0.894c-0.757,0-1.35,0.297-1.777,0.89c-0.427,0.593-0.645,1.433-0.655,2.518v0.582
		c0,1.108,0.216,1.965,0.648,2.57c0.432,0.605,1.031,0.908,1.798,0.908c0.776,0,1.372-0.295,1.791-0.887
		c0.418-0.591,0.627-1.455,0.627-2.591V19.725z"/>
	<path fill="#FFFFFF" d="M44.111,25.031h-1.752l-4.495-7.155v7.155h-1.752V14.946h1.752l4.509,7.183v-7.183h1.739V25.031z"/>
	<path fill="#FFFFFF" d="M53.268,16.359h-3.145v8.672h-1.739v-8.672h-3.117v-1.413h8V16.359z"/>
	<path fill="#FFFFFF" d="M58.297,21.152h-1.953v3.879h-1.752V14.946h3.546c1.164,0,2.062,0.261,2.694,0.783s0.949,1.278,0.949,2.267
		c0,0.675-0.163,1.24-0.488,1.695c-0.325,0.455-0.779,0.805-1.361,1.05l2.265,4.2v0.09h-1.877L58.297,21.152z M56.344,19.739h1.801
		c0.591,0,1.053-0.149,1.385-0.447s0.499-0.705,0.499-1.223c0-0.54-0.154-0.958-0.461-1.254c-0.307-0.295-0.765-0.448-1.375-0.457
		h-1.849V19.739z"/>
	<path fill="#FFFFFF" d="M71.492,20.252c0,0.988-0.171,1.855-0.513,2.601c-0.342,0.746-0.83,1.318-1.465,1.718
		c-0.635,0.399-1.366,0.599-2.192,0.599c-0.817,0-1.546-0.2-2.185-0.599c-0.64-0.399-1.134-0.969-1.482-1.707
		c-0.349-0.739-0.525-1.591-0.53-2.556v-0.568c0-0.984,0.174-1.852,0.523-2.604c0.349-0.753,0.84-1.329,1.476-1.728
		c0.635-0.399,1.363-0.599,2.185-0.599c0.822,0,1.55,0.197,2.185,0.592c0.635,0.395,1.126,0.963,1.472,1.704
		c0.346,0.741,0.522,1.604,0.526,2.587V20.252z M69.74,19.725c0-1.118-0.211-1.974-0.634-2.57c-0.423-0.596-1.022-0.894-1.798-0.894
		c-0.757,0-1.35,0.297-1.777,0.89c-0.427,0.593-0.645,1.433-0.655,2.518v0.582c0,1.108,0.216,1.965,0.648,2.57
		c0.432,0.605,1.031,0.908,1.798,0.908c0.776,0,1.372-0.295,1.791-0.887c0.418-0.591,0.627-1.455,0.627-2.591V19.725z"/>
	<path fill="#FFFFFF" d="M74.99,23.618h4.579v1.413h-6.331V14.946h1.752V23.618z"/>
	<path fill="#FFFFFF" d="M86.807,20.529h-4.142v3.089h4.842v1.413h-6.595V14.946h6.546v1.413h-4.793v2.785h4.142V20.529z"/>
</g>
<g>
	<path fill="#FFFFFF" d="M20.505,29.81l3.057,8.631l3.04-8.631h3.22v11.901h-2.46v-3.253l0.245-5.615l-3.212,8.868h-1.684
		l-3.204-8.86l0.245,5.607v3.253h-2.452V29.81H20.505z"/>
	<path fill="#FFFFFF" d="M41.808,29.81v7.838c0,1.302-0.407,2.332-1.222,3.089c-0.815,0.758-1.928,1.136-3.339,1.136
		c-1.389,0-2.493-0.368-3.31-1.103c-0.817-0.736-1.234-1.746-1.251-3.033V29.81h2.452v7.855c0,0.779,0.186,1.347,0.56,1.704
		c0.373,0.357,0.889,0.535,1.549,0.535c1.378,0,2.079-0.724,2.1-2.174v-7.92H41.808z"/>
	<path fill="#FFFFFF" d="M54.334,41.711h-2.452l-4.773-7.83v7.83h-2.452V29.81h2.452l4.781,7.847V29.81h2.444V41.711z"/>
	<path fill="#FFFFFF" d="M59.919,41.711h-2.452V29.81h2.452V41.711z"/>
	<path fill="#FFFFFF" d="M72.371,37.746c-0.093,1.281-0.565,2.289-1.418,3.024c-0.853,0.736-1.977,1.103-3.372,1.103
		c-1.526,0-2.726-0.514-3.6-1.541c-0.875-1.027-1.312-2.437-1.312-4.23v-0.727c0-1.144,0.201-2.152,0.605-3.024
		c0.403-0.871,0.979-1.541,1.729-2.007c0.749-0.466,1.619-0.699,2.611-0.699c1.373,0,2.479,0.368,3.318,1.103
		c0.839,0.736,1.324,1.768,1.455,3.098h-2.452c-0.06-0.768-0.274-1.325-0.642-1.671c-0.368-0.346-0.928-0.519-1.68-0.519
		c-0.817,0-1.429,0.293-1.835,0.879c-0.406,0.586-0.615,1.495-0.625,2.726v0.899c0,1.286,0.195,2.226,0.584,2.82
		c0.39,0.594,1.004,0.891,1.843,0.891c0.757,0,1.323-0.173,1.696-0.519c0.373-0.346,0.587-0.881,0.642-1.606H72.371z"/>
	<path fill="#FFFFFF" d="M77.425,41.711h-2.452V29.81h2.452V41.711z"/>
	<path fill="#FFFFFF" d="M82.986,37.517v4.193h-2.452V29.81h4.643c0.894,0,1.68,0.163,2.358,0.49c0.678,0.327,1.2,0.792,1.565,1.394
		c0.365,0.602,0.548,1.287,0.548,2.056c0,1.166-0.399,2.086-1.197,2.759c-0.798,0.673-1.903,1.009-3.314,1.009H82.986z
		 M82.986,35.531h2.19c0.648,0,1.143-0.153,1.483-0.458c0.341-0.305,0.511-0.741,0.511-1.308c0-0.583-0.172-1.054-0.515-1.414
		c-0.343-0.359-0.817-0.545-1.422-0.556h-2.248V35.531z"/>
	<path fill="#FFFFFF" d="M97.432,39.258h-4.299l-0.817,2.452h-2.607l4.43-11.901h2.272l4.455,11.901h-2.607L97.432,39.258z
		 M93.795,37.272h2.975l-1.496-4.455L93.795,37.272z"/>
	<path fill="#FFFFFF" d="M105.265,39.741h5.206v1.97h-7.658V29.81h2.452V39.741z"/>
</g>
<g>
	<path fill="#FFFFFF" d="M98.882,48.532h-3.24l0.095-0.603l2.061-1.979c0.384-0.375,0.595-0.714,0.634-1.018
		c0.029-0.216-0.007-0.396-0.109-0.54c-0.102-0.144-0.256-0.221-0.46-0.23c-0.252-0.009-0.465,0.07-0.637,0.237
		c-0.173,0.167-0.278,0.395-0.313,0.683l-0.804,0.003c0.023-0.304,0.115-0.578,0.278-0.821c0.162-0.243,0.378-0.432,0.647-0.567
		c0.269-0.135,0.561-0.199,0.874-0.193c0.432,0.009,0.773,0.134,1.024,0.375c0.251,0.24,0.361,0.563,0.332,0.967
		c-0.039,0.463-0.317,0.953-0.835,1.468l-0.211,0.208l-1.434,1.349h2.204L98.882,48.532z"/>
	<path fill="#FFFFFF" d="M101.116,48.6c-0.429-0.009-0.754-0.157-0.974-0.444c-0.22-0.287-0.327-0.69-0.32-1.208
		c0.002-0.168,0.013-0.336,0.034-0.504l0.133-0.885c0.111-0.695,0.326-1.214,0.644-1.557c0.318-0.343,0.729-0.509,1.233-0.497
		c0.427,0.009,0.751,0.154,0.972,0.436s0.329,0.681,0.322,1.199c-0.003,0.171-0.014,0.338-0.034,0.504l-0.133,0.862
		c-0.116,0.711-0.331,1.241-0.646,1.589C102.033,48.443,101.622,48.612,101.116,48.6z M102.339,45.511
		c0.03-0.259,0.044-0.443,0.044-0.552c-0.011-0.513-0.199-0.778-0.562-0.794c-0.277-0.012-0.499,0.09-0.668,0.303
		c-0.168,0.214-0.286,0.553-0.354,1.018l-0.157,1.08c-0.027,0.234-0.04,0.419-0.037,0.555c0,0.531,0.186,0.805,0.559,0.821
		c0.513,0.03,0.843-0.371,0.991-1.202L102.339,45.511z"/>
	<path fill="#FFFFFF" d="M105.547,48.532h-0.804l0.688-3.965l-1.253,0.416l0.126-0.732l1.962-0.695h0.123L105.547,48.532z"/>
	<path fill="#FFFFFF" d="M110.555,43.545l-0.068,0.688l-0.044-0.003c-0.436-0.004-0.814,0.113-1.135,0.352
		c-0.32,0.24-0.571,0.603-0.753,1.088c0.3-0.291,0.641-0.431,1.025-0.422c0.266,0.004,0.492,0.079,0.678,0.223
		c0.186,0.144,0.323,0.342,0.409,0.593c0.086,0.251,0.116,0.524,0.088,0.819c-0.027,0.322-0.121,0.618-0.283,0.888
		c-0.161,0.269-0.372,0.477-0.632,0.623c-0.26,0.147-0.545,0.216-0.853,0.209c-0.393-0.009-0.712-0.148-0.957-0.419
		c-0.245-0.27-0.385-0.625-0.419-1.066c-0.021-0.243,0.006-0.568,0.078-0.974c0.148-0.811,0.463-1.446,0.945-1.907
		c0.482-0.461,1.096-0.692,1.841-0.692H110.555z M109.345,45.913c-0.182-0.004-0.352,0.044-0.511,0.145s-0.293,0.245-0.402,0.431
		c-0.025,0.229-0.036,0.393-0.034,0.49c0,0.291,0.053,0.521,0.16,0.692c0.107,0.17,0.26,0.258,0.46,0.262
		c0.245,0.007,0.453-0.085,0.625-0.276c0.171-0.191,0.274-0.44,0.308-0.749c0.03-0.288-0.01-0.525-0.119-0.708
		C109.723,46.015,109.561,45.92,109.345,45.913z"/>
</g>
<g>
	<path fill="#FFFFFF" d="M133.485,24.458c0.589,0.002,1.154-0.04,1.603-0.512c0.189-0.198,0.481-0.112,0.727-0.102
		c0.241,0.009,0.392-0.096,0.566-0.248c0.509-0.443,0.998-0.93,1.73-0.999c0.241-0.023,0.42-0.18,0.623-0.311
		c0.694-0.446,0.965-1.219,1.476-1.801c0.022-0.025,0.035-0.059,0.056-0.086c0.309-0.39,0.405-0.393,0.712-0.01
		c0.078,0.098,0.158,0.186,0.257,0.267c0.255,0.207,0.504,0.304,0.795,0.081c0.018-0.014,0.04-0.022,0.062-0.029
		c0.455-0.151,0.939-0.395,1.186-0.78c0.277-0.432,0.526-0.887,0.795-1.328c0.034-0.056,0.065-0.138,0.049-0.195
		c-0.082-0.296-0.011-0.514,0.266-0.672c0.077-0.044,0.066-0.154,0.038-0.252c-0.056-0.196-0.098-0.398-0.134-0.599
		c-0.039-0.215,0.008-0.393,0.196-0.539c0.269-0.209,0.477-0.407,0.435-0.845c-0.037-0.394,0.12-0.838,0.474-1.125
		c0.282-0.229,0.31-0.483,0.273-0.841c-0.055-0.532-0.067-1.066-0.227-1.582c-0.025-0.081-0.011-0.171,0.059-0.22
		c0.273-0.193,0.116-0.33-0.05-0.472c-0.043-0.037-0.103-0.077-0.114-0.125c-0.09-0.378-0.352-0.523-0.711-0.579
		c-0.19-0.03-0.262-0.199-0.291-0.382c-0.029-0.178,0.07-0.252,0.202-0.348c0.169-0.123,0.329-0.282,0.348-0.519
		c0.006-0.07,0.01-0.145,0.075-0.182c0.397-0.226,0.603-0.601,0.786-0.996c0.082-0.177,0.225-0.228,0.419-0.217
		c1.549,0.087,3.099,0.153,4.652,0.149c0.223-0.001,0.45,0.084,0.678,0.056c0.597-0.071,1.086,0.113,1.574,0.477
		c1.526,1.136,3.088,2.223,4.634,3.332c1.333,0.956,2.659,1.921,3.997,2.869c0.21,0.149,0.228,0.228,0.07,0.449
		c-0.379,0.532-0.733,1.088-0.82,1.76c-0.029,0.225-0.091,0.419-0.315,0.529c-0.09,0.044-0.173,0.108-0.167,0.236
		c0.017,0.349-0.144,0.667-0.19,1.003c-0.079,0.58-0.398,0.893-0.957,1.037c-0.31,0.08-0.493,0.37-0.644,0.633
		c-0.263,0.457-0.643,0.796-1.027,1.136c-0.068,0.06-0.16,0.114-0.19,0.19c-0.254,0.634-0.751,1.147-0.905,1.83
		c-0.066,0.292-0.254,0.368-0.551,0.39c-1.121,0.085-2.239,0.215-3.359,0.317c-0.668,0.061-1.339,0.097-2.008,0.155
		c-0.397,0.034-0.793,0.076-1.193,0.075c-0.236,0-0.426,0.102-0.557,0.33c-0.255,0.445-0.547,0.868-0.807,1.311
		c-0.1,0.169-0.217,0.304-0.407,0.337c-0.671,0.114-1.094,0.488-1.27,1.148c-0.154,0.582-0.642,0.93-0.995,1.37
		c-0.134,0.167-0.192,0.321-0.184,0.525c0.011,0.263-0.018,0.528,0.008,0.789c0.027,0.274-0.115,0.383-0.342,0.413
		c-0.517,0.07-0.919,0.381-1.357,0.618c-0.182,0.098-0.243,0.275-0.285,0.448c-0.049,0.201-0.153,0.269-0.343,0.225
		c-0.589-0.138-1.079-0.038-1.394,0.54c-0.058,0.106-0.184,0.173-0.257,0.274c-0.255,0.35-0.709,0.613-0.495,1.172
		c0.06,0.158-0.045,0.279-0.205,0.345c-0.215,0.089-0.396,0.216-0.514,0.431c-0.088,0.16-0.237,0.243-0.431,0.218
		c-0.268-0.035-0.345,0.09-0.367,0.352c-0.038,0.452-0.25,0.87-0.297,1.329c-0.032,0.313-0.07,0.615,0.061,0.905
		c0.142,0.315,0.025,0.512-0.267,0.618c-0.257,0.093-0.451,0.255-0.636,0.446c-0.16,0.165-0.287,0.317-0.314,0.577
		c-0.032,0.299-0.214,0.55-0.553,0.625c-0.194,0.043-0.349,0.137-0.472,0.311c-0.145,0.206-0.597,0.228-0.881,0.076
		c-0.312-0.167-0.572-0.124-0.743,0.189c-0.156,0.285-0.365,0.333-0.664,0.351c-1.055,0.064-2.107,0.175-3.161,0.251
		c-0.386,0.028-0.772,0.05-1.158,0.073c-1.386,0.081-2.772,0.146-4.156,0.271c-0.736,0.067-1.478,0.066-2.215,0.142
		c-0.233,0.024-0.369-0.281-0.273-0.64c0.067-0.253,0.166-0.498,0.264-0.741c0.087-0.215,0.089-0.393-0.058-0.602
		c-0.3-0.427-0.065-1.098,0.425-1.32c0.08-0.036,0.152-0.1,0.213-0.166c0.185-0.2,0.377-0.216,0.61-0.075
		c0.341,0.206,0.532,0.185,0.648-0.173c0.175-0.542,0.595-0.551,1.017-0.586c0.209-0.018,0.312-0.099,0.334-0.305
		c0.013-0.114,0.047-0.256,0.186-0.249c0.233,0.012,0.283-0.15,0.348-0.307c0.085-0.204,0.13-0.447,0.441-0.415
		c0.029,0.003,0.089-0.055,0.092-0.089c0.047-0.581,0.598-0.939,0.665-1.51c0.005-0.044,0.051-0.097,0.037-0.128
		c-0.262-0.615,0.236-0.833,0.608-1.03c0.355-0.189,0.405-0.469,0.428-0.782c0.018-0.247,0.04-0.502-0.046-0.748
		c-0.049-0.139-0.003-0.272,0.07-0.393c0.108-0.18,0.2-0.396,0.17-0.582c-0.056-0.351,0.127-0.499,0.384-0.631
		c0.466-0.239,0.63-0.645,0.667-1.144c0.054-0.736,0.066-1.486,0.223-2.202c0.193-0.884,0.65-1.654,1.439-2.165
		C132.922,24.409,133.212,24.455,133.485,24.458z"/>
	<path fill="#FFFFFF" d="M155.182,37.021c0.046-0.079,0.08-0.167,0.138-0.236c0.368-0.437,0.575-0.922,0.481-1.506
		c-0.01-0.065-0.01-0.148,0.021-0.201c0.48-0.824,0.504-1.846,1.133-2.604c0.081-0.098,0.084-0.207,0.084-0.323
		c-0.001-0.172-0.021-0.346,0.004-0.514c0.048-0.329,0.052-0.696,0.526-0.738c0.168-0.015,0.19-0.214,0.292-0.311
		c0.264-0.252,0.387-0.527,0.277-0.891c-0.022-0.071-0.022-0.181,0.067-0.212c0.375-0.131,0.426-0.512,0.62-0.783
		c0.099-0.139,0.187-0.287,0.272-0.435c0.108-0.187,0.235-0.307,0.477-0.326c0.434-0.035,0.673-0.411,0.969-0.664
		c0.157-0.134,0.316-0.207,0.496-0.271c0.536-0.188,1.093-0.342,1.547-0.695c0.386-0.3,0.736-0.647,1.181-0.869
		c0.048-0.024,0.096-0.075,0.114-0.125c0.167-0.482,0.531-0.575,0.982-0.517c0.124,0.016,0.252,0.005,0.377,0
		c0.527-0.022,0.735-0.224,0.799-0.736c0.022-0.178,0.074-0.359,0.148-0.523c0.189-0.42,0.35-0.491,0.809-0.399
		c0.616,0.124,0.828,0.013,1.08-0.594c0.051-0.122,0.092-0.241,0.227-0.277c0.646-0.172,1.129-0.583,1.562-1.064
		c0.154-0.171,0.265-0.205,0.48-0.043c1.291,0.975,2.588,1.941,3.906,2.878c0.436,0.31,0.984,0.415,1.482,0.612
		c1.474,0.582,2.955,1.147,4.437,1.71c0.193,0.073,0.237,0.146,0.054,0.258c-0.325,0.199-0.613,0.442-1.043,0.465
		c-0.409,0.022-0.697,0.359-0.992,0.628c-0.112,0.102-0.02,0.181,0.037,0.265c0.291,0.437,0.583,0.873,0.868,1.314
		c0.235,0.362,0.069,0.805-0.344,0.937c-0.033,0.01-0.075,0.014-0.095,0.037c-0.347,0.393-0.834,0.595-1.233,0.905
		c-0.485,0.377-0.613,0.451-1.074,0.058c-0.111-0.095-0.24-0.128-0.367-0.174c-0.108-0.04-0.206-0.078-0.285-0.175
		c-0.298-0.365-0.612-0.353-0.904,0.032c-0.223,0.294-0.401,0.626-0.483,0.978c-0.125,0.537-0.228,1.081-0.186,1.647
		c0.044,0.603,0.228,1.163,0.44,1.712c0.158,0.409,0.105,0.731-0.2,1.021c-0.165,0.157-0.325,0.331-0.519,0.442
		c-0.778,0.447-1.276,1.159-1.779,1.862c-0.382,0.534-0.936,0.859-1.432,1.256c-0.506,0.406-1.052,0.769-1.423,1.319
		c-0.057,0.085-0.148,0.161-0.171,0.254c-0.147,0.588-0.671,0.762-1.108,1.037c-0.751,0.472-1.568,0.849-2.195,1.499
		c-0.337,0.349-0.53,0.771-0.524,1.26c0.003,0.226-0.088,0.348-0.294,0.391c-0.479,0.099-0.962,0.177-1.437,0.292
		c-0.332,0.08-0.455-0.101-0.54-0.358c-0.138-0.417-0.184-0.87-0.543-1.195c-0.345-0.312-0.674-0.348-0.968,0.011
		c-0.424,0.519-1.074,0.605-1.605,0.915c-0.254,0.148-0.552,0.218-0.811,0.36c-0.174,0.096-0.308,0.238-0.344,0.477
		c-0.051,0.346-0.738,0.859-1.104,0.879c-0.102,0.006-0.237-0.019-0.3,0.035c-0.542,0.471-1.328,0.461-1.854,0.973
		c-0.422,0.41-1.002,0.585-1.495,0.892c-0.126,0.078-0.258,0.141-0.374,0.238c-0.112,0.095-0.283,0.233-0.391,0.178
		c-0.319-0.163-0.491,0.022-0.695,0.198c-0.061,0.053-0.187,0.09-0.257,0.063c-0.332-0.127-0.611,0.053-0.887,0.157
		c-0.606,0.229-1.208,0.314-1.834,0.116c-0.118-0.038-0.195,0.034-0.283,0.082c-0.311,0.172-0.657,0.131-0.887-0.136
		c-0.162-0.188-0.326-0.109-0.497-0.054c-0.733,0.238-0.535,0.205-0.65-0.432c-0.07-0.387-0.035-0.793-0.074-1.192
		c-0.047-0.475-0.065-0.952-0.138-1.425c-0.034-0.22,0.005-0.376,0.28-0.401c0.531-0.049,1.059-0.16,1.59-0.177
		c1.082-0.034,2.152-0.233,3.236-0.219c0.203,0.003,0.255-0.126,0.239-0.295c-0.038-0.403,0.056-0.768,0.285-1.101
		c0.019-0.028,0.041-0.062,0.042-0.093c0.015-0.862,0.65-1.381,1.111-1.992c0.438-0.58,0.583-1.274,0.829-1.931
		c0.095-0.254,0.127-0.53,0.272-0.765c0.265-0.411,0.389-0.841,0.19-1.319c-0.022-0.053-0.027-0.115-0.002-0.167
		c0.126-0.262,0.091-0.533,0.057-0.806C155.065,37.267,155.089,37.134,155.182,37.021z"/>
	<path fill="#FFFFFF" d="M125.064,7.079c1.416,0.095,2.727,0.129,4.038,0.161c0.99,0.024,1.981,0.08,2.97,0.135
		c1.242,0.068,2.486,0.043,3.725,0.13c1.252,0.088,2.506,0.098,3.759,0.147c1.265,0.05,2.528,0.113,3.794,0.136
		c0.623,0.011,1.244,0.131,1.872,0.122c0.19-0.003,0.23,0.076,0.132,0.225c-0.18,0.27-0.292,0.607-0.674,0.683
		c-0.124,0.025-0.148,0.136-0.138,0.244c0.028,0.311-0.14,0.471-0.417,0.53c-0.244,0.052-0.286,0.178-0.191,0.391
		c0.036,0.081,0.049,0.175,0.059,0.265c0.04,0.363,0.147,0.627,0.59,0.681c0.355,0.044,0.499,0.368,0.444,0.744
		c-0.04,0.27,0.097,0.514,0.171,0.761c0.142,0.473,0.084,0.952,0.099,1.429c0.004,0.131-0.082,0.21-0.166,0.286
		c-0.431,0.388-0.537,0.909-0.584,1.447c-0.015,0.17-0.039,0.301-0.191,0.408c-0.421,0.295-0.539,0.653-0.376,1.153
		c0.072,0.222,0.135,0.418-0.141,0.54c-0.132,0.058-0.153,0.189-0.115,0.292c0.12,0.326-0.026,0.579-0.207,0.815
		c-0.296,0.386-0.426,0.874-0.777,1.229c-0.135,0.137-0.252,0.254-0.462,0.236c-0.122-0.011-0.258-0.035-0.363,0.057
		c-0.272,0.238-0.454,0.071-0.63-0.133c-0.104-0.121-0.195-0.255-0.31-0.363c-0.186-0.175-0.508-0.164-0.678,0.02
		c-0.387,0.419-0.776,0.838-1.006,1.374c-0.065,0.152-0.174,0.263-0.314,0.353c-0.191,0.122-0.386,0.238-0.508,0.447
		c-0.087,0.15-0.268,0.194-0.419,0.207c-0.769,0.068-1.29,0.586-1.858,1.01c-0.157,0.117-0.291,0.207-0.487,0.186
		c-0.375-0.039-0.684,0.073-0.962,0.342c-0.325,0.314-0.745,0.357-1.174,0.289c-0.366-0.059-0.704,0.02-1.024,0.187
		c-0.192,0.1-0.334,0.077-0.487-0.081c-0.259-0.268-0.556-0.413-0.95-0.272c-0.12,0.043-0.322,0.093-0.405-0.061
		c-0.071-0.132,0.074-0.247,0.149-0.358c0.217-0.321,0.429-0.646,0.659-0.958c0.145-0.197,0.167-0.4,0.076-0.611
		c-0.065-0.152-0.09-0.301-0.096-0.464c-0.014-0.404-0.165-0.52-0.545-0.375c-0.491,0.187-0.953,0.449-1.369,0.765
		c-0.435,0.329-0.831,0.711-1.234,1.08c-0.182,0.167-0.35,0.344-0.469,0.577c-0.153,0.299-0.448,0.457-0.778,0.326
		c-0.404-0.16-0.862-0.093-1.241-0.419c-0.314-0.27-1.022-0.102-1.363,0.206c-0.23,0.208-0.431,0.443-0.577,0.716
		c-0.115,0.217-0.308,0.351-0.519,0.316c-0.25-0.041-0.297-0.282-0.276-0.518c0.012-0.128-0.021-0.246-0.073-0.365
		c-0.068-0.157-0.128-0.319-0.171-0.484c-0.156-0.593-0.153-0.609-0.791-0.593c-0.32,0.008-0.443-0.11-0.482-0.424
		c-0.065-0.529-0.197-1.048-0.002-1.581c0.037-0.102-0.003-0.257-0.056-0.364c-0.245-0.497-0.22-1.049-0.334-1.572
		c-0.026-0.12-0.059-0.198-0.184-0.256c-0.569-0.262-0.633-0.593-0.21-1.083c0.183-0.212,0.339-0.413,0.321-0.723
		c-0.014-0.238-0.096-0.338-0.329-0.317c-0.331,0.03-0.443-0.133-0.435-0.452c0.016-0.672-0.058-1.34-0.123-2.01
		c-0.055-0.565,0.198-1.033,0.561-1.445c0.588-0.666,1.355-1.154,1.858-1.91c0.274-0.412,0.75-0.585,1.18-0.797
		c0.119-0.059,0.273-0.102,0.186-0.296c-0.205-0.456,0.005-0.874,0.151-1.284c0.067-0.189,0.167-0.376,0.225-0.569
		C124.525,7.204,124.708,6.945,125.064,7.079z"/>
	<path fill="#FFFFFF" d="M152.711,29.127c0.486,0.057,0.965-0.115,1.461-0.014c0.282,0.057,0.377-0.308,0.606-0.429
		c0.395-0.209,0.756-0.508,1.244-0.359c0.166,0.051,0.234-0.02,0.287-0.15c0.026-0.063,0.027-0.156,0.072-0.189
		c0.623-0.448,0.761-1.258,1.319-1.75c0.198-0.174,0.183-0.318-0.012-0.472c-0.203-0.162-0.32-0.372-0.395-0.623
		c-0.071-0.238-0.169-0.476-0.342-0.664c-0.218-0.238-0.203-0.479-0.067-0.751c0.116-0.233,0.199-0.483,0.301-0.723
		c0.085-0.199,0.165-0.401,0.385-0.504c0.095-0.044,0.173-0.139,0.18-0.24c0.035-0.488,0.443-0.699,0.739-0.978
		c0.169-0.159,0.326-0.307,0.43-0.516c0.184-0.372,0.462-0.584,0.88-0.733c0.375-0.134,0.754-0.436,0.795-0.936
		c0.03-0.376,0.206-0.723,0.224-1.103c0.003-0.061,0.04-0.147,0.088-0.175c0.307-0.179,0.322-0.482,0.4-0.785
		c0.148-0.582,0.447-1.106,0.761-1.616c0.125-0.204,0.274-0.135,0.43-0.019c0.859,0.638,1.722,1.271,2.584,1.905
		c1.44,1.06,2.879,2.12,4.32,3.178c0.401,0.295,0.4,0.299,0.055,0.654c-0.364,0.375-0.779,0.668-1.285,0.809
		c-0.23,0.064-0.351,0.187-0.433,0.42c-0.165,0.467-0.317,0.531-0.616,0.455c-0.733-0.186-1.359,0.285-1.436,1.044
		c-0.052,0.512-0.125,0.567-0.652,0.603c-0.26,0.018-0.509-0.097-0.777-0.016c-0.211,0.063-0.381,0.158-0.487,0.344
		c-0.151,0.265-0.338,0.484-0.627,0.606c-0.082,0.035-0.166,0.088-0.225,0.154c-0.642,0.715-1.503,1.002-2.394,1.227
		c-0.13,0.033-0.196,0.091-0.279,0.203c-0.229,0.306-0.484,0.609-0.916,0.632c-0.227,0.012-0.342,0.187-0.45,0.336
		c-0.213,0.294-0.43,0.59-0.56,0.935c-0.052,0.137-0.142,0.215-0.284,0.269c-0.272,0.103-0.367,0.294-0.284,0.597
		c0.106,0.385-0.184,0.817-0.586,0.878c-0.221,0.034-0.32,0.13-0.351,0.343c-0.024,0.168-0.134,0.341-0.11,0.496
		c0.106,0.684-0.266,1.201-0.567,1.742c-0.147,0.263-0.27,0.523-0.275,0.833c-0.004,0.208-0.077,0.417-0.207,0.572
		c-0.247,0.296-0.309,0.626-0.267,0.989c0.033,0.289-0.047,0.537-0.224,0.765c-0.118,0.153-0.225,0.316-0.326,0.481
		c-0.083,0.136-0.241,0.31-0.208,0.419c0.139,0.451-0.143,0.895,0.015,1.334c0.091,0.252,0.039,0.478-0.06,0.726
		c-0.202,0.505-0.391,1.02-0.532,1.545c-0.255,0.947-0.869,1.666-1.461,2.4c-0.154,0.191-0.314,0.335-0.239,0.624
		c0.048,0.185-0.078,0.37-0.167,0.545c-0.087,0.171-0.188,0.346-0.224,0.531c-0.106,0.545-0.1,0.503-0.629,0.57
		c-1.151,0.145-2.319,0.092-3.461,0.322c-0.256,0.052-0.521-0.012-0.783,0.056c-0.171,0.045-0.2-0.126-0.209-0.246
		c-0.075-0.941-0.139-1.882-0.214-2.823c-0.032-0.407-0.074-0.814-0.122-1.22c-0.036-0.306-0.014-0.563,0.246-0.801
		c0.495-0.452,1.044-0.845,1.477-1.368c0.16-0.193,0.51-0.206,0.622-0.455c0.289-0.638,0.803-1.102,1.25-1.605
		c0.387-0.435,0.432-1.013,0.769-1.442c0.484-0.616,0.925-1.271,1.518-1.794c0.07-0.062,0.126-0.127,0.15-0.222
		c0.212-0.817,0.841-1.11,1.586-1.247c0.127-0.023,0.247-0.048,0.347-0.129c0.165-0.133,0.323-0.281,0.25-0.518
		c-0.066-0.215-0.271-0.157-0.434-0.185c-0.504-0.086-1.066-0.069-1.495-0.299c-0.717-0.384-1.487-0.553-2.238-0.804
		c-0.137-0.046-0.159-0.129-0.108-0.266c0.159-0.423,0.258-0.888,0.841-0.936c0.076-0.006,0.144-0.105,0.216-0.161
		c0.162-0.138,0.338-0.254,0.531-0.346C152.304,28.945,152.519,28.916,152.711,29.127z"/>
	<path fill="#FFFFFF" d="M190.129,37.71c-0.058,0.315-0.282,0.443-0.565,0.523c-0.537,0.152-1.067,0.34-1.619,0.044
		c-0.106-0.057-0.241-0.067-0.365-0.082c-0.323-0.038-0.367,0.021-0.278,0.33c0.129,0.449,0.291,0.893,0.365,1.352
		c0.06,0.368-0.11,0.739-0.282,1.052c-0.148,0.269-0.517,0.254-0.808,0.277c-0.338,0.027-0.695-0.039-0.877,0.369
		c-0.027,0.06-0.157,0.084-0.243,0.107c-0.462,0.124-0.754,0.443-0.958,0.851c-0.045,0.09-0.1,0.137-0.18,0.108
		c-0.555-0.201-1.09,0.023-1.616,0.113c-0.617,0.105-1.26,0.182-1.815,0.532c-0.088,0.056-0.755-0.147-0.809-0.229
		c-0.047-0.071-0.001-0.128,0.021-0.192c0.138-0.415-0.091-0.777-0.529-0.83c-0.103-0.013-0.232,0.003-0.266-0.11
		c-0.088-0.294-0.308-0.462-0.529-0.644c-0.168-0.138-0.236-0.337-0.143-0.558c0.086-0.201-0.026-0.355-0.165-0.441
		c-0.179-0.111-0.286,0.07-0.388,0.187c-0.059,0.068-0.131,0.147-0.144,0.23c-0.096,0.605-0.636,0.68-1.041,0.953
		c-0.535,0.361-1.178,0.495-1.682,0.899c-0.134,0.107-0.177,0.26-0.249,0.397c-0.15,0.283-0.354,0.441-0.694,0.464
		c-1.066,0.073-2.13,0.179-3.195,0.26c-0.568,0.043-1.141,0.044-1.708,0.057c-0.722,0.016-1.332,0.27-1.936,0.599
		c-0.331,0.18-0.647,0.379-0.9,0.671c-0.19,0.219-0.481,0.27-0.744,0.316c-0.259,0.046-0.264-0.174-0.215-0.348
		c0.151-0.541,0.479-0.94,0.966-1.233c0.791-0.476,1.562-0.984,2.345-1.473c0.162-0.101,0.27-0.227,0.341-0.408
		c0.278-0.714,0.873-1.146,1.451-1.59c0.442-0.34,0.913-0.649,1.32-1.027c0.296-0.275,0.527-0.627,0.754-0.967
		c0.335-0.502,0.754-0.901,1.263-1.223c0.356-0.225,0.673-0.505,0.869-0.895c0.134-0.266,0.172-0.523,0.06-0.82
		c-0.28-0.748-0.55-1.506-0.46-2.327c0.069-0.633,0.137-1.269,0.555-1.8c0.139-0.177,0.255-0.282,0.4-0.021
		c0.048,0.087,0.118,0.156,0.206,0.168c0.323,0.044,0.565,0.243,0.809,0.424c0.301,0.223,0.55,0.211,0.822-0.045
		c0.146-0.137,0.299-0.278,0.5-0.347c0.198-0.068,0.297-0.028,0.245,0.199c-0.025,0.111-0.033,0.242-0.098,0.324
		c-0.231,0.285-0.185,0.562-0.006,0.837c0.396,0.609,0.142,1.23,0.036,1.844c-0.059,0.343-0.027,0.684-0.038,1.025
		c-0.006,0.202,0.094,0.172,0.206,0.07c0.253-0.23,0.512-0.454,0.759-0.691c0.431-0.415,1.127-0.418,1.565,0.003
		c0.618,0.594,1.237,1.185,1.849,1.785c0.147,0.144,0.246,0.175,0.465,0.074c0.579-0.266,1.008-0.726,1.522-1.072
		c0.308-0.208,0.691-0.308,0.888-0.671c0.06-0.112,0.178-0.065,0.275-0.016c0.25,0.126,0.524,0.126,0.767,0.035
		c0.282-0.106,0.506-0.064,0.729,0.11c0.142,0.111,0.286,0.181,0.467,0.061c0.202-0.135,0.074-0.291,0.029-0.426
		c-0.061-0.181-0.057-0.361-0.043-0.542c0.01-0.129,0.061-0.233,0.22-0.263c0.232-0.044,0.405-0.2,0.577-0.351
		c0.088-0.077,0.153-0.223,0.31-0.117c0.145,0.098,0.275,0.202,0.262,0.408c-0.037,0.563,0.128,0.649,0.615,0.911
		c0.514,0.276,0.898,0.19,1.354-0.064c0.31-0.172,0.834,0.077,1.003,0.409c0.015,0.03,0.031,0.063,0.056,0.086
		c0.445,0.405,0.295,0.843,0.087,1.296c-0.147,0.319-0.252,0.662-0.577,0.859c-0.152,0.055-0.296,0.045-0.451-0.015
		C190.509,37.358,190.361,37.412,190.129,37.71z"/>
	<path fill="#FFFFFF" d="M112.251,7.822c0.05-0.096-0.062-0.167-0.141-0.242c-0.258-0.241-0.514-0.486-0.784-0.713
		c-0.369-0.31-0.504-0.749-0.671-1.171c-0.046-0.116-0.079-0.261,0.021-0.355c0.085-0.081,0.195,0.014,0.289,0.042
		c1.178,0.352,2.354,0.712,3.533,1.061c0.519,0.154,1.063,0.139,1.592,0.15c1.447,0.031,2.885,0.215,4.333,0.238
		c0.737,0.012,1.474,0.11,2.214,0.127c0.464,0.011,0.927,0.085,1.391,0.127c0.307,0.028,0.131,0.226,0.086,0.312
		c-0.213,0.406-0.36,0.834-0.481,1.273c-0.048,0.175-0.095,0.344-0.042,0.534c0.053,0.188-0.025,0.331-0.221,0.402
		c-0.653,0.235-1.119,0.669-1.429,1.294c-0.216,0.435-0.663,0.652-1.024,0.941c-0.789,0.632-1.13,1.415-0.965,2.416
		c0.035,0.213-0.026,0.434,0.058,0.645c0.034,0.085-0.013,0.163-0.082,0.209c-0.456,0.304-0.936,0.56-1.473,0.686
		c-0.1,0.023-0.219-0.047-0.331-0.062c-0.291-0.039-0.537-0.252-0.883-0.124c-0.174,0.065-0.444-0.072-0.621-0.23
		c-0.396-0.354-0.845-0.435-1.348-0.293c-0.096,0.027-0.203,0.037-0.302,0.025c-0.257-0.032-0.394,0.107-0.449,0.324
		c-0.062,0.243-0.225,0.261-0.418,0.228c-0.423-0.072-0.844-0.151-1.265-0.23c-0.028-0.005-0.075-0.042-0.072-0.053
		c0.104-0.397-0.402-0.465-0.428-0.808c-0.017-0.223-0.142-0.068-0.232-0.017c-0.593,0.337-1.06,0.853-1.677,1.16
		c-0.221,0.11-0.462,0.081-0.68,0.2c-0.213,0.116-0.397,0.233-0.449,0.474c-0.073,0.339-0.309,0.509-0.595,0.653
		c-0.264,0.132-0.534,0.267-0.572,0.621c-0.011,0.105-0.118,0.16-0.21,0.212c-0.189,0.107-0.363,0.246-0.562,0.325
		c-0.974,0.391-1.652,1.16-2.386,1.854c-0.203,0.192-0.423,0.152-0.641,0.137c-0.231-0.017-0.457-0.083-0.457-0.395
		c0-0.072-0.061-0.129-0.135-0.135c-0.246-0.022-0.467-0.049-0.513-0.372c-0.013-0.089-0.184-0.049-0.284-0.05
		c-0.518-0.007-0.822-0.234-1.004-0.735c-0.144-0.396-0.308-0.785-0.454-1.181c-0.052-0.141-0.138-0.239-0.275-0.283
		c-0.337-0.108-0.399-0.369-0.325-0.656c0.12-0.462-0.016-0.935,0.094-1.396c0.026-0.109-0.065-0.219-0.159-0.289
		c-0.251-0.185-0.095-0.247,0.087-0.288c0.621-0.139,1.244-0.286,1.879-0.314c0.297-0.013,0.549-0.109,0.816-0.199
		c0.125-0.042,0.138-0.118,0.154-0.229c0.047-0.343,0.257-0.481,0.593-0.409c0.536,0.115,0.674-0.036,1.074-0.405
		c0.485-0.448,0.894-1.097,1.706-1.039c0.132,0.009,0.228,0.024,0.309,0.156c0.214,0.349,0.818,0.515,1.196,0.319
		c0.232-0.12,0.437-0.113,0.687-0.06c0.319,0.068,0.646,0.053,0.981-0.032c0.671-0.17,1.269-0.536,1.936-0.697
		c0.559-0.134,0.882-0.588,1.322-0.882c0.135-0.09,0.266-0.201,0.419-0.224c0.739-0.114,0.956-0.748,0.714-1.473
		c-0.065-0.194-0.175-0.379-0.203-0.577c-0.051-0.354-0.237-0.334-0.485-0.23c-0.158,0.066-0.33,0.106-0.474,0.194
		c-0.421,0.26-0.791,0.173-1.151-0.118C112.278,8.109,112.151,8.041,112.251,7.822z"/>
	<path fill="#FFFFFF" d="M111.242,27.685c-0.358-0.203-0.474-0.571-0.611-0.917c-0.092-0.232-0.226-0.331-0.486-0.328
		c-0.667,0.007-0.809-0.114-0.882-0.758c-0.024-0.212-0.101-0.293-0.299-0.338c-0.382-0.086-0.644-0.558-0.506-0.913
		c0.052-0.133,0.166-0.289,0.338-0.226c0.564,0.208,1.066-0.11,1.597-0.168c0.144-0.016,0.289-0.087,0.436-0.058
		c0.803,0.155,1.472-0.252,2.172-0.517c0.141-0.053,0.27-0.124,0.419-0.1c0.331,0.052,0.564-0.078,0.677-0.381
		c0.069-0.186,0.151-0.151,0.277-0.08c0.263,0.147,0.479,0.322,0.598,0.622c0.13,0.331,0.51,0.517,0.862,0.439
		c0.483-0.107,0.958-0.159,1.452-0.051c0.364,0.079,0.677-0.164,1.002-0.279c0.452-0.16,0.885-0.254,1.368-0.152
		c0.451,0.095,0.883,0.006,1.235-0.331c0.17-0.163,0.35-0.226,0.586-0.107c0.199,0.101,0.428,0.037,0.644,0.039
		c0.23,0.002,0.354,0.081,0.386,0.33c0.052,0.404,0.185,0.794,0.213,1.207c0.017,0.247,0.411,0.517,0.672,0.487
		c0.095-0.011,0.153,0.014,0.209,0.075c0.336,0.365,0.561,0.796,0.738,1.254c0.037,0.096,0.045,0.216-0.035,0.293
		c-0.218,0.209-0.148,0.467-0.065,0.672c0.226,0.558,0.003,1.051-0.18,1.542c-0.087,0.232-0.14,0.399,0.086,0.559
		c0.139,0.098,0.138,0.198,0.033,0.341c-0.425,0.581-0.595,1.312-1.093,1.857c-0.134,0.147-0.253,0.341-0.247,0.585
		c0.006,0.272-0.262,0.223-0.415,0.256c-0.579,0.125-0.942,0.527-1.217,0.988c-0.153,0.258-0.43,0.367-0.564,0.627
		c-0.046,0.088-0.135-0.011-0.203-0.046c-0.406-0.208-0.82-0.251-1.286-0.214c-0.559,0.044-1.117,0.158-1.709-0.074
		c-0.555-0.218-1.198-0.218-1.804-0.296c-0.171-0.022-0.32-0.029-0.471-0.149c-0.362-0.289-0.814-0.246-1.221-0.183
		c-0.567,0.088-1.136,0.042-1.703,0.107c-1.039,0.118-2.088,0.145-3.131,0.224c-0.249,0.019-0.495,0.082-0.747,0.063
		c-0.085-0.007-0.207,0.048-0.242-0.064c-0.032-0.104,0.039-0.222,0.127-0.26c0.398-0.17,0.433-0.683,0.831-0.854
		c0.113-0.049,0.101-0.191,0.103-0.308c0.01-0.438,0.173-0.626,0.597-0.721c0.144-0.032,0.284-0.087,0.425-0.133
		c0.283-0.091,0.514-0.195,0.429-0.586c-0.045-0.206,0.031-0.425,0.259-0.549c0.226-0.122,0.248-0.403,0.414-0.576
		c0.167-0.253,0.225-0.55,0.345-0.823l0,0c0.072-0.183,0.129-0.366-0.001-0.548l0,0C111.589,27.944,111.418,27.812,111.242,27.685z"
		/>
	<path fill="#FFFFFF" d="M120.239,16.63c0.662,0.204,0.673,0.129,0.264,0.708c-0.372,0.527-0.367,0.774-0.021,1.29
		c0.025,0.037,0.049,0.096,0.083,0.104c0.507,0.125,0.374,0.56,0.418,0.891c0.042,0.311-0.016,0.632,0.249,0.888
		c0.076,0.073,0.12,0.222,0.051,0.353c-0.233,0.442-0.114,0.89,0.002,1.327c0.051,0.194-0.016,0.258-0.148,0.386
		c-0.528,0.513-1.163,0.578-1.836,0.505c-0.517-0.056-0.949,0.19-1.403,0.355c-0.311,0.113-0.607,0.171-0.933,0.082
		c-0.353-0.096-0.702,0.032-1.051,0.065c-0.319,0.03-0.53-0.021-0.666-0.359c-0.192-0.476-0.703-0.593-1.104-0.807
		c-0.196-0.105-0.362,0.079-0.36,0.322c0.001,0.181-0.068,0.291-0.261,0.274c-0.532-0.046-0.925,0.34-1.404,0.448
		c-0.397,0.089-0.773,0.281-1.211,0.195c-0.394-0.078-0.794,0.018-1.174,0.125c-0.278,0.078-0.535,0.181-0.83,0.076
		c-0.101-0.036-0.264-0.052-0.332,0.004c-0.269,0.222-0.407,0.026-0.569-0.136c-0.349-0.348-0.812-0.407-1.26-0.422
		c-0.478-0.015-0.889-0.062-1.061-0.593c-0.047-0.146-0.196-0.181-0.313-0.245c-0.384-0.21-0.549-0.642-0.391-1.053
		c0.106-0.276,0.233-0.539,0.239-0.848c0.007-0.366,0.286-0.578,0.533-0.797c0.034-0.03,0.091-0.039,0.114-0.073
		c0.555-0.805,1.512-1.018,2.268-1.526c0.186-0.125,0.3-0.25,0.365-0.457c0.076-0.245,0.211-0.436,0.521-0.343
		c0.099,0.03,0.126-0.034,0.177-0.108c0.18-0.262,0.386-0.506,0.478-0.821c0.053-0.179,0.234-0.236,0.378-0.259
		c0.661-0.105,1.175-0.452,1.633-0.912c0.079-0.08,0.182-0.136,0.272-0.206c0.1-0.078,0.165-0.071,0.182,0.068
		c0.023,0.181,0.274,0.254,0.225,0.474c-0.005,0.022,0.058,0.08,0.095,0.085c0.39,0.061,0.716,0.387,1.153,0.264
		c0.142-0.04,0.29,0.007,0.438,0.04c0.422,0.095,0.594,0.004,0.775-0.385c0.038-0.081,0.088-0.13,0.176-0.14
		c0.203-0.022,0.406-0.043,0.609-0.067c0.373-0.043,0.683,0.076,0.957,0.332c0.192,0.179,0.457,0.238,0.702,0.223
		c0.271-0.017,0.514,0.028,0.761,0.122c0.537,0.206,0.982-0.103,1.451-0.273c0.094-0.104,0.273-0.064,0.344-0.206l0,0
		c0.235,0.181,0.17,0.467,0.23,0.705C120.089,16.442,120.102,16.563,120.239,16.63z"/>
	<path fill="#FFFFFF" d="M154.27,32.268c-0.29,0.101-0.539,0.22-0.8,0.273c-0.512,0.105-0.838,0.444-1.032,0.873
		c-0.19,0.421-0.519,0.714-0.789,1.061c-0.349,0.449-0.722,0.88-1.071,1.329c-0.181,0.232-0.357,0.466-0.354,0.795
		c0.001,0.201-0.191,0.333-0.305,0.485c-0.273,0.364-0.553,0.726-0.886,1.04c-0.093,0.088-0.174,0.185-0.217,0.305
		c-0.114,0.321-0.342,0.505-0.64,0.669c-0.322,0.177-0.502,0.54-0.804,0.765c-0.246,0.183-0.462,0.407-0.693,0.61
		c-0.051,0.045-0.11,0.083-0.199,0.054c-0.043-0.892-0.202-1.78-0.155-2.681c0.015-0.277,0.133-0.474,0.343-0.687
		c0.337-0.342,0.728-0.664,0.891-1.153c0.08-0.241-0.121-0.873-0.408-1.054c-0.244-0.153-0.35-0.388-0.47-0.614
		c-0.27-0.509,0.066-0.874,0.362-1.211c0.328-0.375,0.569-0.752,0.526-1.281c-0.034-0.417-0.341-0.637-0.739-0.461
		c-0.362,0.16-0.693,0.34-0.958,0.677c-0.37,0.471-0.8,0.903-1.346,1.196c-0.429,0.231-0.784,0.547-1.003,0.996
		c-0.169,0.345-0.452,0.564-0.793,0.723c-0.363,0.17-0.641,0.43-0.823,0.792c-0.105,0.209-0.259,0.354-0.481,0.46
		c-0.354,0.169-0.634,0.433-0.805,0.803c-0.135,0.292-0.759,0.627-1.079,0.608c-0.247-0.014-0.267-0.224-0.272-0.371
		c-0.022-0.622,0.181-1.209,0.342-1.8c0.032-0.118,0.148-0.1,0.232-0.09c0.231,0.029,0.357-0.074,0.447-0.279
		c0.129-0.293,0.408-0.418,0.677-0.547c0.195-0.094,0.3-0.211,0.193-0.45c-0.133-0.297-0.089-0.555,0.179-0.791
		c0.228-0.201,0.41-0.457,0.599-0.7c0.156-0.201,0.34-0.308,0.592-0.226c0.136,0.044,0.271,0.038,0.407,0.037
		c0.531-0.007,0.534,0.091,0.648-0.498c0.029-0.149,0.12-0.252,0.26-0.335c0.434-0.257,0.875-0.489,1.387-0.539
		c0.269-0.026,0.376-0.162,0.34-0.432c-0.053-0.4,0.086-0.793,0.065-1.193c-0.01-0.183,0.142-0.287,0.245-0.397
		c0.351-0.377,0.726-0.745,0.858-1.256c0.163-0.633,0.64-0.84,1.188-0.967c0.163-0.038,0.257-0.118,0.338-0.254
		c0.286-0.48,0.583-0.952,0.871-1.431c0.16-0.267,0.447-0.227,0.672-0.235c1.025-0.035,2.046-0.144,3.062-0.245
		c1.016-0.102,2.04-0.139,3.05-0.31c0.303-0.051,0.569-0.025,0.732,0.322c0.13,0.277,0.324,0.524,0.379,0.835
		c0.015,0.084,0.042,0.158,0.107,0.208c0.32,0.248,0.204,0.479-0.024,0.706c-0.106,0.105-0.233,0.205-0.265,0.353
		c-0.108,0.496-0.558,0.738-0.814,1.122c-0.068,0.102-0.18,0.092-0.281,0.084c-0.58-0.046-1.015,0.251-1.415,0.61
		c-0.146,0.131-0.261,0.219-0.475,0.157c-0.146-0.042-0.314-0.018-0.474,0.021c-0.246,0.061-0.499,0.102-0.689-0.141
		c-0.066-0.085-0.147-0.074-0.246-0.049c-0.332,0.084-0.664,0.168-0.93,0.402c-0.235,0.206-0.496,0.359-0.801,0.43
		c-0.163,0.038-0.236,0.141-0.298,0.293c-0.137,0.334-0.209,0.703-0.473,0.977c-0.171,0.177-0.093,0.265,0.111,0.323
		c0.623,0.179,1.246,0.363,1.867,0.55c0.441,0.133,0.779,0.508,1.276,0.522C153.554,32.064,153.9,32.118,154.27,32.268z"/>
	<path fill="#FFFFFF" d="M130.742,27.755c0.008,0.468-0.023,0.93-0.122,1.392c-0.065,0.307-0.211,0.513-0.479,0.66
		c-0.32,0.175-0.661,0.34-0.518,0.824c0.028,0.094-0.02,0.237-0.08,0.326c-0.297,0.441-0.187,0.91-0.126,1.38
		c0.027,0.212-0.026,0.41-0.215,0.542c-0.206,0.143-0.408,0.293-0.625,0.416c-0.245,0.139-0.331,0.353-0.28,0.603
		c0.098,0.478-0.027,0.877-0.357,1.221c-0.081,0.085-0.15,0.17-0.172,0.289c-0.008,0.044-0.028,0.122-0.047,0.123
		c-0.511,0.041-0.344,0.808-0.88,0.82c-0.063,0.001-0.086,0.075-0.092,0.131c-0.041,0.419-0.376,0.465-0.669,0.455
		c-0.38-0.013-0.529,0.187-0.631,0.489c-0.073,0.216-0.15,0.344-0.406,0.156c-0.216-0.158-0.713-0.051-0.901,0.148
		c-0.048,0.051-0.091,0.118-0.163,0.109c-0.222-0.025-0.289,0.12-0.361,0.287c-0.093,0.217-0.219,0.324-0.466,0.142
		c-0.206-0.152-0.483-0.089-0.725-0.141c-0.205-0.044-0.395-0.086-0.548-0.246c-0.186-0.195-0.282-0.406-0.1-0.639
		c0.263-0.338,0.102-0.701,0.085-1.053c-0.01-0.2-0.216-0.214-0.355-0.276c-0.563-0.251-0.782-1.27-0.311-1.653
		c0.364-0.296,0.451-0.765,0.814-1.064c0.276-0.228,0.554-0.325,0.883-0.372c0.205-0.029,0.397-0.058,0.304-0.371
		c-0.099-0.331,0.13-0.58,0.339-0.776c0.439-0.414,0.487-1.044,0.868-1.483c0.014-0.017,0.015-0.047,0.031-0.061
		c0.311-0.267,0.473-0.535,0.041-0.842c-0.063-0.045-0.067-0.146-0.022-0.223c0.236-0.406,0.122-0.902,0.343-1.312
		c0.074-0.136-0.005-0.246-0.076-0.347c-0.133-0.191-0.137-0.387-0.021-0.575c0.088-0.142,0.098-0.297,0.052-0.429
		c-0.16-0.457-0.242-0.953-0.619-1.309c-0.067-0.063-0.144-0.13-0.081-0.235c0.239-0.395,0.42-0.827,0.883-1.051
		c0.312-0.151,0.559-0.062,0.844,0.053c0.59,0.239,1.207,0.393,1.848,0.379c0.292-0.006,0.482-0.271,0.582-0.482
		c0.197-0.416,0.52-0.688,0.86-0.952c0.531-0.411,1.076-0.804,1.617-1.202c0.183-0.135,0.296-0.083,0.394,0.124
		c0.183,0.387,0.126,0.704-0.159,1.025c-0.202,0.228-0.346,0.508-0.516,0.765c-0.136,0.206-0.109,0.42,0.009,0.613
		c0.112,0.185,0.297,0.112,0.465,0.084c0.34-0.057,0.675-0.096,0.974,0.153c0.178,0.149,0.217,0.266,0.02,0.431
		c-0.557,0.466-0.72,1.156-0.995,1.783C130.796,26.971,130.828,27.37,130.742,27.755z"/>
	<path fill="#FFFFFF" d="M179.219,43.205c0.513,0.208,0.969,0.175,1.339,0.443c0.099,0.072,0.344,0.083,0.425,0.011
		c0.317-0.279,0.725-0.244,1.083-0.361c0.729-0.238,1.462-0.484,2.261-0.325c0.209,0.041,0.206,0.115,0.131,0.226
		c-0.266,0.397-0.039,0.733,0.117,1.073c0.217,0.476,0.375,0.975,0.617,1.443c0.209,0.405-0.008,0.983-0.385,1.243
		c-0.253,0.174-0.502,0.346-0.674,0.618c-0.127,0.201-0.223,0.394-0.184,0.636c0.049,0.3-0.098,0.518-0.285,0.734
		c-0.583,0.673-1.096,1.393-1.411,2.237c-0.105,0.281-0.304,0.489-0.573,0.603c-0.409,0.172-0.829,0.318-1.248,0.465
		c-0.153,0.054-0.26,0.056-0.276-0.182c-0.017-0.253-0.056-0.525-0.252-0.728c-0.1-0.103-0.065-0.203-0.003-0.311
		c0.346-0.601-0.053-1.417-0.728-1.492c-0.022-0.002-0.052-0.008-0.066,0.003c-0.518,0.407-0.788-0.247-1.204-0.289
		c-0.106-0.011-0.137-0.152-0.104-0.287c0.105-0.428,0.001-0.755-0.387-1.033c-0.327-0.234-0.548-0.614-0.988-0.691
		c-0.085-0.015-0.09-0.077-0.065-0.157c0.071-0.222-0.167-0.466-0.388-0.359c-0.51,0.245-1.065,0.408-1.51,0.779
		c-0.077,0.064-0.126,0.133-0.261,0.098c-0.353-0.091-0.625,0.104-0.615,0.462c0.015,0.514-0.247,0.789-0.689,0.978
		c-0.359,0.153-0.667,0.443-1.107,0.341c-0.112-0.026-0.245-0.018-0.306-0.121c-0.078-0.131,0.084-0.191,0.123-0.289
		c0.203-0.508,0.51-0.983,0.531-1.551c0.009-0.247,0.148-0.452,0.19-0.688c0.028-0.16-0.004-0.245-0.179-0.241
		c-0.518,0.013-1.037-0.021-1.54,0.173c-0.438,0.169-0.939-0.019-1.252-0.475c-0.171-0.25-0.388-0.39-0.663-0.437
		c-0.292-0.049-0.329-0.169-0.207-0.42c0.172-0.354,0.392-0.697,0.365-1.119c-0.005-0.081,0.067-0.106,0.139-0.123
		c0.144-0.035,0.285-0.071,0.437-0.068c1.392,0.026,2.777-0.049,4.155-0.265c0.313-0.049,0.634-0.024,0.953-0.059
		c0.38-0.042,0.608-0.288,0.724-0.552c0.174-0.399,0.496-0.546,0.832-0.697c0.523-0.234,1.044-0.466,1.529-0.774
		c0.413-0.263,0.416-0.258,0.626-0.621c0.132,0.521,0.721,0.642,0.821,1.159c0.033,0.17,0.194,0.185,0.335,0.152
		c0.157-0.038,0.269,0.002,0.35,0.137c0.093,0.155-0.002,0.264-0.104,0.357C179.532,42.967,179.402,43.06,179.219,43.205z"/>
	<path fill="#FFFFFF" d="M94.749,4.645c0.184-0.081,0.326,0.016,0.467,0.113c0.192,0.132,0.396,0.203,0.638,0.211
		c0.289,0.009,0.477-0.036,0.518-0.377c0.026-0.215,0.213-0.313,0.431-0.316c0.172-0.003,0.346-0.019,0.514,0.004
		c0.436,0.058,0.758-0.112,1.067-0.41c0.178-0.172,0.172-0.295,0.06-0.466c-0.13-0.201-0.235-0.414-0.284-0.65
		c-0.088-0.421-0.336-0.742-0.63-1.036c-0.13-0.129-0.248-0.265-0.208-0.507c1.354,0.416,2.688,0.827,4.023,1.236
		c0.935,0.286,1.872,0.567,2.807,0.851c0.88,0.268,1.758,0.542,2.638,0.806c0.978,0.293,1.957,0.585,2.939,0.863
		c0.299,0.085,0.49,0.208,0.532,0.556c0.053,0.445,0.263,0.848,0.478,1.238c0.147,0.267,0.439,0.387,0.656,0.585
		c0.32,0.292,0.311,0.287-0.077,0.469c-0.222,0.104-0.451,0.138-0.666,0.086c-0.269-0.066-0.472-0.011-0.636,0.189
		c-0.242,0.296-0.562,0.128-0.794,0.071c-0.613-0.149-1.123,0.061-1.637,0.314c-0.705,0.346-1.35,0.755-1.932,1.312
		c-0.538,0.515-0.667,0.39-0.956-0.144c-0.118-0.219-0.445-0.265-0.457-0.589c-0.002-0.041-0.375-0.012-0.495,0.151
		c-0.172,0.233-0.427,0.273-0.65,0.396c-0.503,0.277-0.832,0.182-1.248-0.142c-0.26-0.203-0.632-0.221-0.988-0.138
		c-0.639,0.149-1.312,0.181-1.866,0.595c-0.103,0.077-0.216,0.036-0.281-0.037c-0.325-0.364-0.75-0.346-1.172-0.316
		c-0.285,0.02-0.475-0.096-0.697-0.268c-0.358-0.278-0.657-0.57-0.916-0.954C95.737,8.054,95.323,7.914,95,7.721
		c-0.391-0.234-0.413-0.387-0.029-0.624c0.314-0.194,0.428-0.463,0.409-0.803c-0.029-0.518-0.106-1.023-0.513-1.406
		C94.801,4.825,94.741,4.754,94.749,4.645z"/>
	<path fill="#FFFFFF" d="M147.286,50.828c0-0.046-0.005-0.092,0.001-0.137c0.023-0.16-0.09-0.407,0.121-0.453
		c0.27-0.059,0.541-0.306,0.852-0.006c0.222,0.214,0.589,0.324,0.849,0.155c0.356-0.233,0.72-0.1,1.042-0.079
		c0.436,0.028,0.807-0.083,1.188-0.215c0.272-0.094,0.538-0.166,0.83-0.167c0.431-0.002,0.791-0.345,1.242-0.279
		c0.706-0.523,1.534-0.85,2.236-1.379c0.281-0.212,0.555-0.429,0.933-0.448c0.147-0.007,0.271-0.102,0.396-0.189
		c0.227-0.159,0.477-0.228,0.762-0.288c0.345-0.072,0.742-0.222,0.97-0.626c0.291-0.515,0.602-1.07,1.338-1.058
		c0.098,0.002,0.2-0.057,0.26-0.149c0.102-0.156,0.271-0.239,0.427-0.265c0.348-0.058,0.559-0.287,0.784-0.514
		c0.32-0.323,0.55-0.297,0.787,0.09c0.053,0.086,0.079,0.189,0.115,0.285c0.141,0.368,0.231,0.747,0.48,1.082
		c0.297,0.399,0.178,0.894-0.247,1.316c-0.453,0.45-0.925,0.882-1.388,1.323c-0.05,0.047-0.124,0.089-0.141,0.147
		c-0.157,0.538-0.61,0.546-1.045,0.614c-0.579,0.09-0.84,0.703-0.516,1.185c0.046,0.069,0.075,0.135,0.086,0.217
		c0.017,0.126-0.08,0.314,0.095,0.36c0.179,0.047,0.378,0.071,0.56-0.052c0.291-0.197,0.699-0.091,0.865,0.216
		c0.042,0.078,0.103,0.158,0.181,0.118c0.441-0.225,0.871,0.026,1.304,0.033c0.415,0.007,0.684-0.114,0.906-0.457
		c0.302-0.466,0.533-0.924,0.285-1.493c-0.059-0.136-0.182-0.367-0.011-0.428c0.19-0.067,0.416-0.124,0.653-0.05
		c0.645,0.2,0.515,0.757,0.572,1.21c0.07,0.556-0.171,1.075-0.315,1.596c-0.078,0.281-0.445,0.437-0.71,0.339
		c-0.57-0.209-1.085-0.008-1.601,0.122c-0.628,0.159-1.281,0.209-1.893,0.434c-0.166,0.061-0.335-0.008-0.447-0.115
		c-0.359-0.343-0.814-0.385-1.261-0.408c-0.768-0.039-1.531-0.018-2.173,0.515c-0.454,0.377-1.039,0.447-1.572,0.638
		c-0.095,0.034-0.22,0.069-0.264,0.144c-0.404,0.68-1.052,0.886-1.78,0.959c-0.145,0.014-0.293,0.057-0.425,0.118
		c-0.912,0.421-1.751,0.167-2.537-0.312c-0.444-0.271-0.832-0.633-1.237-0.965c-0.207-0.169-0.376-0.268-0.589,0.006
		c-0.13,0.167-0.319,0.291-0.491,0.422c-0.141,0.108-0.275,0.106-0.263-0.114c0.028-0.504-0.067-1-0.087-1.501
		c-0.02-0.499-0.095-0.995-0.146-1.492C147.273,50.829,147.279,50.829,147.286,50.828z"/>
	<path fill="#FFFFFF" d="M168.405,44.265c0.113,0.432-0.203,0.706-0.313,1.042c-0.126,0.386-0.02,0.678,0.362,0.743
		c0.29,0.049,0.463,0.169,0.633,0.425c0.42,0.633,1.09,0.683,1.754,0.54c0.313-0.067,0.608,0.071,0.907-0.025
		c0.062-0.02,0.11,0.041,0.085,0.107c-0.068,0.178,0.037,0.401-0.055,0.537c-0.263,0.392-0.262,0.891-0.561,1.266
		c-0.317,0.397-0.196,0.658,0.27,0.77c0.575,0.138,1.074,0.041,1.536-0.318c0.253-0.196,0.427-0.155,0.566,0.165
		c0.163,0.373,0.396,0.711,0.492,1.118c0.056,0.24,0.208,0.407,0.477,0.483c0.357,0.101,0.608,0.394,0.907,0.601
		c0.122,0.084,0.121,0.172-0.004,0.302c-0.478,0.497-1.037,0.606-1.678,0.414c-0.144-0.043-0.315-0.09-0.424,0.029
		c-0.485,0.53-1.022,0.326-1.539,0.101c-0.217-0.095-0.358-0.122-0.493,0.084c-0.071,0.109-0.178,0.123-0.269,0.063
		c-0.484-0.32-1.04-0.268-1.573-0.299c-0.324-0.019-0.639-0.074-0.936-0.175c-0.296-0.101-0.572-0.116-0.868-0.042
		c-0.382,0.096-0.763,0.09-1.15,0.009c-0.334-0.07-0.678-0.118-1.019-0.073c-0.343,0.045-0.388-0.11-0.304-0.381
		c0.17-0.55,0.242-1.112,0.198-1.686c-0.029-0.37,0.06-0.797-0.437-0.964c-0.088-0.029-0.09-0.145-0.118-0.234
		c-0.082-0.259-0.25-0.315-0.461-0.142c-0.186,0.153-0.361,0.188-0.597,0.117c-0.319-0.096-0.431,0.049-0.394,0.396
		c0.027,0.25,0.066,0.49,0.147,0.73c0.124,0.368-0.12,1.082-0.46,1.265c-0.286,0.154-0.618,0.061-0.935,0.027
		c-0.52-0.056-0.967-0.362-1.487-0.407c-0.079-0.007-0.158-0.032-0.236-0.029c-0.187,0.007-0.425-0.084-0.525-0.214
		c-0.223-0.29-0.098-0.611,0.268-0.676c0.246-0.044,0.492-0.09,0.74-0.116c0.188-0.019,0.294-0.123,0.336-0.287
		c0.099-0.382,0.39-0.603,0.667-0.841c0.467-0.402,0.917-0.823,1.297-1.309c0.171-0.219,0.253-0.488,0.208-0.775
		c-0.036-0.231,0.074-0.334,0.285-0.374c0.368-0.07,0.737-0.142,1.103-0.221c0.2-0.043,0.402-0.092,0.554-0.249
		c0.049-0.05,0.106-0.089,0.18-0.085c0.62,0.029,1.097-0.25,1.533-0.664C167.448,44.658,167.913,44.443,168.405,44.265z"/>
	<path fill="#FFFFFF" d="M183.194,31.186c0.645,0.407,1.347,0.706,2.012,1.075c0.207,0.115,0.408,0.212,0.405,0.525
		c-0.002,0.213,0.218,0.339,0.405,0.426c0.32,0.149,0.646,0.289,0.976,0.415c0.134,0.051,0.169,0.096,0.13,0.243
		c-0.071,0.269-0.224,0.526-0.13,0.83c0.028,0.091-0.081,0.138-0.164,0.075c-0.182-0.138-0.363-0.093-0.552-0.027
		c-0.278,0.098-0.55,0.115-0.829-0.024c-0.207-0.103-0.412-0.107-0.553,0.142c-0.108,0.19-0.265,0.346-0.477,0.42
		c-0.646,0.223-0.996,0.861-1.609,1.136c-0.182,0.081-0.286,0.108-0.44-0.046c-0.557-0.555-1.133-1.092-1.699-1.639
		c-0.554-0.535-1.462-0.539-2.019-0.004c-0.025,0.024-0.045,0.055-0.074,0.071c-0.092,0.052-0.157,0.212-0.271,0.15
		c-0.108-0.059-0.01-0.185,0.004-0.282c0.054-0.359,0.089-0.719,0.192-1.072c0.08-0.276-0.08-0.537-0.196-0.781
		c-0.128-0.268-0.188-0.504-0.059-0.804c0.119-0.276,0.148-0.593,0.207-0.894c0.054-0.274,0.221-0.442,0.472-0.541
		c0.653-0.258,0.846-0.911,0.446-1.485c-0.208-0.299-0.402-0.609-0.603-0.912c-0.202-0.305-0.062-0.677,0.337-0.678
		c0.579-0.002,0.942-0.36,1.357-0.638c0.249-0.167,0.447-0.223,0.745-0.092c0.677,0.299,1.376,0.551,2.07,0.81
		c0.172,0.064,0.204,0.131,0.128,0.299c-0.358,0.787-0.121,1.003,0.404,1.451c0.152,0.183,0.124,0.34-0.05,0.499
		c-0.216,0.198-0.418,0.413-0.626,0.621C182.827,30.764,182.839,30.9,183.194,31.186z"/>
	<path fill="#FFFFFF" d="M111.998,8.393c0.586,0.464,1.2,0.624,1.889,0.206c0.211-0.128,0.341-0.066,0.399,0.21
		c0.062,0.294,0.25,0.56,0.129,0.887c-0.051,0.138-0.124,0.287-0.248,0.307c-0.658,0.101-1.048,0.614-1.548,0.958
		c-0.281,0.194-0.603,0.334-0.94,0.375c-0.292,0.035-0.517,0.214-0.788,0.289c-0.14,0.039-0.29,0.095-0.434,0.147
		c-0.474,0.173-0.948,0.095-1.425,0.064c-0.179-0.012-0.33,0.074-0.488,0.137c-0.378,0.15-0.663,0.003-0.73-0.392
		c-0.027-0.159-0.144-0.263-0.248-0.215c-0.409,0.187-0.885,0.062-1.278,0.313c-0.43,0.274-0.811,0.612-1.142,0.984
		c-0.231,0.259-0.425,0.376-0.756,0.259c-0.316-0.111-0.869,0.153-0.967,0.477c-0.059,0.193-0.184,0.249-0.344,0.278
		c-0.636,0.117-1.273,0.229-1.91,0.342c-0.056,0.01-0.115,0.008-0.17,0.021c-0.531,0.124-0.535,0.127-0.762-0.34
		c-0.094-0.193-0.212-0.303-0.444-0.303c-0.226,0-0.423-0.091-0.498-0.339c-0.084-0.28-0.344-0.292-0.556-0.319
		c-0.323-0.041-0.436-0.27-0.523-0.512c-0.058-0.163-0.053-0.344,0.225-0.338c0.235,0.005,0.42-0.166,0.634-0.241
		c0.13-0.046,0.161-0.181,0.153-0.317c-0.014-0.227,0.038-0.457-0.037-0.681c-0.111-0.329,0.037-0.545,0.332-0.645
		c0.55-0.185,1.118-0.312,1.696-0.358c0.214-0.017,0.445,0.079,0.628,0.231c0.52,0.431,0.624,0.446,1.161,0.112
		c0.129-0.08,0.255-0.082,0.391-0.087c0.101-0.003,0.201,0.007,0.3-0.047c0.112-0.061,0.161-0.308,0.241-0.236
		c0.187,0.168,0.484,0.153,0.603,0.449c0.153,0.381,0.565,0.451,0.951,0.264c0.373-0.181,0.594-0.526,0.906-0.768
		c0.638-0.494,1.377-0.803,2.123-1.084c0.262-0.099,0.563,0.035,0.841,0.082c0.322,0.054,0.614,0.072,0.847-0.201
		c0.094-0.11,0.217-0.113,0.345-0.107c0.26,0.073,0.501,0.048,0.754-0.07c0.182-0.085,0.438-0.229,0.541,0.133
		C111.867,8.373,111.956,8.352,111.998,8.393z"/>
	<path fill="#FFFFFF" d="M194.248,31.915c-0.017,0.643-0.215,1.162-0.637,1.589c-0.169,0.171-0.33,0.35-0.51,0.509
		c-0.248,0.218-0.376,0.452-0.208,0.779c0.097,0.19-0.001,0.366-0.1,0.512c-0.181,0.266-0.46,0.251-0.642-0.014
		c-0.045-0.066-0.075-0.141-0.111-0.213c-0.327-0.645-0.79-0.813-1.456-0.53c-0.115,0.049-0.232,0.097-0.344,0.152
		c-0.17,0.084-0.325,0.09-0.47-0.055c-0.09-0.09-0.196-0.155-0.333-0.153c-0.297,0.005-0.329-0.296-0.28-0.407
		c0.099-0.22-0.008-0.319-0.116-0.446c-0.067-0.078-0.143-0.148-0.216-0.22c-0.353-0.345-0.451-0.359-0.81-0.034
		c-0.209,0.189-0.349,0.246-0.599,0.023c-0.261-0.233-0.666-0.193-0.979-0.368c-0.269-0.15-0.584-0.239-0.501-0.654
		c0.023-0.113-0.076-0.139-0.154-0.192c-0.654-0.443-1.403-0.702-2.084-1.094c-0.428-0.246-0.431-0.255-0.067-0.603
		c0.205-0.196,0.394-0.414,0.562-0.643c0.203-0.276,0.101-0.548-0.313-0.938c-0.314-0.297-0.349-0.487-0.175-0.88
		c0.077-0.174,0.164-0.236,0.37-0.156c2.301,0.895,4.609,1.772,6.909,2.672c0.534,0.209,1.099,0.166,1.64,0.289
		c0.426,0.097,0.863,0.051,1.288,0.136c0.135,0.027,0.248,0.042,0.263,0.206C194.201,31.443,194.228,31.703,194.248,31.915z"/>
	<path fill="#FFFFFF" d="M193.296,34.921c-0.015-0.072-0.026-0.163-0.053-0.249c-0.049-0.158-0.013-0.263,0.116-0.386
		c0.263-0.25,0.51-0.523,0.732-0.811c0.341-0.443,0.553-0.939,0.501-1.519c-0.011-0.125-0.001-0.251-0.002-0.377
		c-0.002-0.419,0.02-0.437,0.418-0.282c0.308,0.12,0.619,0.231,0.94,0.312c0.192,0.049,0.348,0.137,0.409,0.361
		c0.309,1.151,0.894,2.188,1.366,3.271c0.122,0.281,0.122,0.436-0.187,0.593c-0.67,0.34-1.356,0.673-1.868,1.246
		c-0.32,0.357-0.752,0.267-1.139,0.341c-0.383,0.073-0.71,0.245-1.021,0.457c-0.258,0.177-0.318,0.471-0.345,0.75
		c-0.023,0.238-0.101,0.444-0.216,0.641c-0.23,0.393-0.459,0.787-0.709,1.166c-0.198,0.3-0.551,0.394-0.849,0.545
		c-0.389,0.196-0.708,0.437-0.917,0.829c-0.141,0.265-0.431,0.264-0.555-0.01c-0.193-0.426-0.47-0.729-0.898-0.935
		c-0.199-0.095-0.387-0.286-0.471-0.524c-0.037-0.104-0.101-0.194-0.186-0.238c-0.556-0.282-0.405-0.894-0.625-1.331
		c-0.048-0.095,0.021-0.171,0.154-0.128c0.183,0.06,0.368,0.145,0.555,0.154c0.58,0.029,1.114-0.18,1.65-0.365
		c0.058-0.02,0.125-0.083,0.143-0.14c0.121-0.385,0.351-0.471,0.749-0.393c0.412,0.081,0.845-0.235,1.022-0.676
		c0.122-0.305,0.303-0.588,0.363-0.919c0.049-0.273,0.182-0.466,0.462-0.578C193.172,35.592,193.248,35.268,193.296,34.921z"/>
	<path fill="#FFFFFF" d="M197.96,36.483c-0.01,0.403-0.179,0.812,0.045,1.209c0.044,0.078,0.051,0.205,0.137,0.225
		c0.357,0.082,0.304,0.356,0.289,0.599c-0.017,0.262,0.098,0.49,0.149,0.734c0.029,0.137,0.153,0.16,0.268,0.169
		c0.137,0.01,0.275-0.001,0.411,0.008c0.153,0.01,0.265,0.112,0.308,0.24c0.043,0.129-0.056,0.23-0.166,0.307
		c-0.316,0.222-0.633,0.442-1.033,0.484c-0.157,0.016-0.272,0.122-0.392,0.201c-0.403,0.267-0.857,0.352-1.321,0.41
		c-0.394,0.05-0.789,0.105-1.184,0.139c-0.237,0.021-0.364,0.108-0.334,0.362c0.024,0.202-0.041,0.318-0.274,0.335
		c-0.282,0.021-0.559,0.096-0.841,0.125c-0.306,0.032-0.497,0.272-0.381,0.561c0.093,0.231,0.028,0.347-0.158,0.484
		c-0.563,0.417-1.215,0.667-1.818,1.008c-0.154,0.087-0.275,0.022-0.36-0.09c-0.176-0.231-0.41-0.263-0.671-0.245
		c-0.114,0.008-0.232,0.015-0.342-0.008c-0.213-0.045-0.373-0.174-0.458-0.377c-0.086-0.205,0.074-0.319,0.193-0.434
		c0.306-0.295,0.587-0.606,0.783-0.988c0.262-0.512,0.82-0.625,1.254-0.9c0.206-0.131,0.417-0.242,0.525-0.47
		c0.239-0.505,0.633-0.92,0.836-1.447c0.033-0.086,0.059-0.167,0.071-0.259c0.079-0.647,0.453-1.105,1.096-1.06
		c0.728,0.051,1.163-0.329,1.638-0.738c0.452-0.388,0.986-0.652,1.508-0.929C197.947,36.027,197.956,36.044,197.96,36.483z"/>
	<path fill="#FFFFFF" d="M198.222,37.142c0.031-0.185,0.064-0.34,0.084-0.499c0.09-0.725-0.153-1.358-0.465-1.992
		c-0.366-0.746-0.722-1.499-0.991-2.287c-0.043-0.127-0.132-0.275-0.012-0.383c0.099-0.09,0.209,0.035,0.312,0.07
		c2.224,0.763,4.448,1.528,6.672,2.291c0.15,0.052,0.303,0.099,0.456,0.142c0.276,0.077,0.288,0.184,0.067,0.365
		c-0.677,0.556-1.41,1.063-2.001,1.7c-0.768,0.826-1.659,1.538-2.313,2.472c-0.139,0.198-0.303,0.356-0.533,0.085
		c-0.04-0.047-0.127-0.087-0.185-0.078c-0.439,0.068-0.405-0.215-0.405-0.504c0-0.214-0.042-0.429-0.069-0.643
		c-0.017-0.138-0.132-0.193-0.239-0.216C198.292,37.597,198.286,37.343,198.222,37.142z"/>
	<path fill="#FFFFFF" d="M189.784,42.651c-0.396,0.495-0.439,0.669-0.203,1.024c0.182,0.274,0.465,0.391,0.785,0.417
		c0.136,0.011,0.277-0.01,0.411,0.011c0.377,0.059,0.518,0.338,0.315,0.657c-0.201,0.317-0.397,0.654-0.666,0.906
		c-0.361,0.337-0.584,0.712-0.647,1.196c-0.033,0.257-0.101,0.385-0.41,0.197c-0.616-0.373-1.277-0.666-2.014-0.696
		c-0.401-0.016-0.757,0.212-1.158,0.255c-0.481,0.052-0.64-0.014-0.593-0.482c0.046-0.467-0.263-0.791-0.379-1.19
		c-0.051-0.174-0.127-0.343-0.211-0.504c-0.259-0.494-0.405-0.987-0.076-1.512c0.044-0.07,0.047-0.178,0.039-0.266
		c-0.027-0.306,0.154-0.457,0.399-0.566c0.248-0.111,0.532-0.117,0.709-0.407c0.09-0.148,0.37-0.124,0.576-0.14
		c0.503-0.038,0.987-0.128,1.171-0.702c0.038-0.118,0.043-0.248,0.089-0.362c0.068-0.169,0.179-0.227,0.282-0.028
		c0.207,0.398,0.5,0.698,0.915,0.882c0.218,0.097,0.361,0.271,0.412,0.515c0.026,0.122,0.083,0.235,0.186,0.317
		C189.957,42.3,189.985,42.459,189.784,42.651z"/>
	<path fill="#FFFFFF" d="M175.988,54.616c-0.18,0.015-0.287-0.06-0.346-0.224c-0.081-0.223-0.24-0.369-0.437-0.504
		c-0.321-0.219-0.31-0.615-0.429-0.941c-0.02-0.056,0.044-0.108,0.1-0.121c0.34-0.079,0.544-0.366,0.823-0.54
		c0.361-0.224,0.334-0.59,0.01-0.854c-0.321-0.262-0.661-0.485-1.039-0.652c-0.107-0.047-0.225-0.107-0.244-0.225
		c-0.082-0.514-0.421-0.907-0.629-1.36c-0.065-0.142-0.114-0.277-0.015-0.419c0.131-0.188,0.226-0.363,0.163-0.625
		c-0.045-0.187,0.145-0.216,0.312-0.159c0.214,0.073,0.332,0.024,0.48-0.191c0.236-0.346,0.687-0.416,1.048-0.602
		c0.024-0.013,0.108,0.024,0.111,0.046c0.049,0.332,0.308,0.327,0.554,0.388c0.207,0.052,0.382,0.203,0.525,0.369
		c0.111,0.128,0.204,0.263,0.365,0.349c0.176,0.094,0.168,0.276,0.132,0.455c-0.111,0.542-0.062,0.632,0.431,0.837
		c0.221,0.092,0.435,0.2,0.607,0.371c0.12,0.119,0.246,0.169,0.392,0.051c0.15-0.122,0.321-0.178,0.451-0.01
		c0.16,0.207,0.488,0.367,0.278,0.72c-0.167,0.28-0.181,0.532,0.024,0.821c0.266,0.376,0.142,0.869-0.24,1.121
		c-0.524,0.347-0.999,0.756-1.456,1.183c-0.313,0.292-0.722,0.326-1.087,0.472C176.59,54.487,176.283,54.538,175.988,54.616z"/>
	<path fill="#FFFFFF" d="M155.182,37.021c-0.092,0.211,0.011,0.421,0.005,0.632c-0.012,0.405-0.077,0.811-0.006,1.217
		c0.061,0.345-0.139,0.59-0.343,0.829c0.165-0.417,0.26-0.831,0.15-1.292c-0.077-0.324,0.103-0.664,0.008-1.012
		C154.965,37.284,155.023,37.098,155.182,37.021z"/>
	<path fill="#FFFFFF" d="M183.194,31.186c-0.371-0.173-0.429-0.423-0.16-0.697c0.216-0.219,0.423-0.449,0.656-0.649
		c0.176-0.151,0.206-0.308,0.122-0.508c0.215,0.151,0.176,0.323,0.024,0.486c-0.186,0.199-0.384,0.388-0.576,0.581
		C182.895,30.764,182.892,30.794,183.194,31.186z"/>
	<path fill="#FFFFFF" d="M111.998,8.393c-0.054-0.01-0.143-0.003-0.158-0.033c-0.165-0.328-0.402-0.193-0.615-0.091
		c-0.233,0.111-0.448,0.092-0.668-0.014c0.311,0.038,0.599-0.042,0.88-0.165c0.208-0.091,0.414-0.173,0.451,0.181
		C111.893,8.315,111.96,8.352,111.998,8.393z"/>
	<path fill="#FFFFFF" d="M120.239,16.63c-0.163-0.008-0.187-0.115-0.214-0.253c-0.051-0.262-0.132-0.518-0.201-0.776
		c0.027-0.051,0.058-0.112,0.121-0.106c0.123,0.012,0.075,0.118,0.086,0.188C120.082,16.003,120.029,16.345,120.239,16.63z"/>
	<path fill="#FFFFFF" d="M190.129,37.71c0.147-0.335,0.41-0.468,0.716-0.297c0.156,0.087,0.297,0.074,0.448,0.089
		c-0.14,0.125-0.305,0.087-0.451,0.04C190.562,37.449,190.332,37.508,190.129,37.71z"/>
	<path fill="#FFFFFF" d="M152.711,29.127c-0.361-0.25-0.645-0.01-0.936,0.153c-0.076,0.043-0.131,0.124-0.231,0.121
		c0.175-0.3,0.482-0.387,0.784-0.473C152.503,28.879,152.63,28.969,152.711,29.127z"/>
	<path fill="#FFFFFF" d="M130.742,27.755c-0.068-0.325,0.11-0.643,0.023-0.971c-0.017-0.066,0.041-0.151,0.113-0.197
		C130.882,26.982,130.896,27.378,130.742,27.755z"/>
	<path fill="#FFFFFF" d="M111.655,28.715c-0.068,0.294-0.099,0.603-0.345,0.823C111.398,29.252,111.475,28.962,111.655,28.715z"/>
	<path fill="#FFFFFF" d="M111.654,28.166c0.257,0.182,0.139,0.365,0.001,0.548C111.654,28.532,111.654,28.349,111.654,28.166z"/>
	<path fill="#FFFFFF" d="M189.784,42.651c0.106-0.178,0.095-0.34-0.068-0.479C190.104,42.342,190.111,42.393,189.784,42.651z"/>
	<path fill="#FFFFFF" d="M111.242,27.685c0.234,0.077,0.405,0.209,0.412,0.481C111.517,28.006,111.379,27.846,111.242,27.685z"/>
	<path fill="#FFFFFF" d="M119.824,15.601c-0.041,0.192-0.216,0.16-0.344,0.206C119.543,15.651,119.715,15.678,119.824,15.601z"/>
</g>
<g>
	<path fill="#BF0411" d="M178.679,38.871c-0.019-0.22-0.056-0.44-0.056-0.66c-0.003-4.551-0.001-9.101-0.005-13.652
		c0-0.438-0.016-0.853,0.729-0.605c0,4.946,0,9.932,0,14.917C179.124,38.871,178.902,38.871,178.679,38.871z"/>
	<path fill="#BF0411" d="M180.095,24.858c1.169,0.366,2.133-0.063,3.072-0.6c1.112-0.636,2.264-1.131,3.588-1.003
		c0.241,0.023,0.484,0.062,0.716,0.128c1.067,0.303,1.135,0.4,1.135,1.515c0,1.598,0,3.197,0,4.795c0,0.214,0,0.427,0,0.774
		c-1.729-1.484-3.347-0.936-4.948-0.043c-0.971,0.541-1.976,0.917-3.105,0.707c-0.172-0.032-0.436-0.262-0.438-0.404
		C180.085,28.799,180.095,26.87,180.095,24.858z"/>
</g>
</svg>
