<?xml version="1.0" encoding="utf-8"?>
<!-- Generator: Adobe Illustrator 17.0.0, SVG Export Plug-In . SVG Version: 6.00 Build 0)  -->
<!DOCTYPE svg PUBLIC "-//W3C//DTD SVG 1.1//EN" "http://www.w3.org/Graphics/SVG/1.1/DTD/svg11.dtd">
<svg version="1.1" id="Camada_1" xmlns="http://www.w3.org/2000/svg" xmlns:xlink="http://www.w3.org/1999/xlink" x="0px" y="0px"
	 width="190px" height="90px" viewBox="0 0 190 90" enable-background="new 0 0 190 90" xml:space="preserve">
<g>
	<path fill="#FFFFFF" d="M71.673,39.093c0.963,0.004,1.886-0.066,2.62-0.836c0.309-0.324,0.786-0.183,1.187-0.167
		c0.394,0.015,0.641-0.157,0.926-0.405c0.831-0.724,1.631-1.52,2.826-1.633c0.394-0.037,0.687-0.294,1.018-0.507
		c1.134-0.729,1.576-1.992,2.412-2.944c0.036-0.042,0.057-0.096,0.092-0.14c0.505-0.637,0.661-0.643,1.164-0.016
		c0.128,0.16,0.257,0.304,0.42,0.436c0.416,0.338,0.823,0.497,1.299,0.132c0.029-0.022,0.066-0.036,0.101-0.048
		c0.744-0.247,1.535-0.646,1.937-1.274c0.453-0.706,0.86-1.45,1.298-2.17c0.055-0.091,0.106-0.226,0.08-0.319
		c-0.134-0.484-0.017-0.841,0.435-1.098c0.125-0.071,0.107-0.251,0.061-0.412c-0.092-0.321-0.16-0.65-0.22-0.978
		c-0.064-0.351,0.013-0.643,0.321-0.881c0.44-0.341,0.779-0.664,0.711-1.38c-0.061-0.643,0.196-1.369,0.774-1.837
		c0.461-0.374,0.506-0.789,0.446-1.375c-0.09-0.869-0.109-1.741-0.371-2.585c-0.041-0.132-0.018-0.28,0.096-0.36
		c0.446-0.315,0.189-0.539-0.082-0.771c-0.071-0.06-0.168-0.126-0.186-0.205c-0.147-0.618-0.575-0.855-1.162-0.947
		c-0.311-0.049-0.427-0.325-0.476-0.623c-0.047-0.291,0.114-0.411,0.331-0.569c0.276-0.201,0.538-0.461,0.568-0.848
		c0.009-0.115,0.017-0.237,0.123-0.297c0.649-0.37,0.985-0.982,1.285-1.627c0.134-0.289,0.368-0.373,0.685-0.355
		c2.532,0.142,5.064,0.251,7.601,0.244c0.365-0.001,0.735,0.137,1.108,0.092c0.975-0.117,1.774,0.185,2.572,0.779
		c2.494,1.856,5.046,3.633,7.572,5.445c2.178,1.562,4.345,3.138,6.531,4.688c0.344,0.244,0.372,0.372,0.114,0.734
		c-0.619,0.869-1.198,1.778-1.34,2.877c-0.048,0.368-0.149,0.685-0.515,0.864c-0.147,0.072-0.283,0.176-0.273,0.385
		c0.028,0.571-0.236,1.09-0.311,1.639c-0.13,0.948-0.65,1.46-1.564,1.695c-0.506,0.13-0.805,0.605-1.052,1.034
		c-0.429,0.747-1.05,1.301-1.679,1.857c-0.11,0.098-0.261,0.186-0.311,0.311c-0.414,1.036-1.227,1.875-1.479,2.991
		c-0.108,0.477-0.416,0.601-0.9,0.637c-1.832,0.139-3.658,0.351-5.488,0.518c-1.092,0.1-2.188,0.159-3.281,0.253
		c-0.649,0.056-1.296,0.124-1.95,0.123c-0.385-0.001-0.695,0.166-0.91,0.54c-0.417,0.727-0.894,1.419-1.318,2.141
		c-0.163,0.277-0.355,0.497-0.665,0.55c-1.096,0.186-1.788,0.797-2.075,1.877c-0.252,0.951-1.049,1.52-1.626,2.239
		c-0.219,0.273-0.314,0.525-0.3,0.858c0.017,0.429-0.029,0.863,0.013,1.289c0.045,0.447-0.187,0.625-0.558,0.676
		c-0.844,0.115-1.501,0.623-2.218,1.01c-0.297,0.161-0.397,0.449-0.465,0.732c-0.08,0.328-0.251,0.44-0.56,0.368
		c-0.962-0.226-1.763-0.062-2.278,0.883c-0.095,0.174-0.3,0.283-0.42,0.448c-0.417,0.572-1.159,1.002-0.809,1.915
		c0.099,0.258-0.074,0.457-0.334,0.564c-0.352,0.145-0.647,0.353-0.84,0.704c-0.143,0.261-0.387,0.397-0.704,0.356
		c-0.438-0.057-0.563,0.147-0.599,0.576c-0.062,0.739-0.408,1.421-0.485,2.172c-0.052,0.511-0.114,1.005,0.099,1.479
		c0.232,0.515,0.042,0.837-0.437,1.01c-0.42,0.151-0.737,0.417-1.039,0.728c-0.262,0.27-0.468,0.518-0.513,0.943
		c-0.052,0.488-0.349,0.899-0.903,1.022c-0.317,0.07-0.571,0.224-0.772,0.508c-0.238,0.336-0.975,0.373-1.439,0.124
		c-0.51-0.273-0.935-0.203-1.215,0.308c-0.255,0.465-0.596,0.544-1.084,0.574c-1.724,0.105-3.443,0.287-5.166,0.409
		c-0.63,0.045-1.262,0.082-1.893,0.119c-2.264,0.133-4.53,0.238-6.79,0.443c-1.202,0.109-2.415,0.108-3.619,0.231
		c-0.381,0.039-0.602-0.458-0.446-1.045c0.11-0.413,0.272-0.813,0.432-1.21c0.142-0.352,0.146-0.642-0.095-0.984
		c-0.49-0.697-0.107-1.794,0.695-2.158c0.131-0.059,0.249-0.164,0.348-0.271c0.302-0.327,0.615-0.352,0.996-0.123
		c0.557,0.336,0.87,0.303,1.059-0.283c0.286-0.885,0.972-0.9,1.662-0.958c0.341-0.029,0.509-0.162,0.546-0.498
		c0.021-0.186,0.077-0.418,0.304-0.407c0.381,0.019,0.462-0.244,0.569-0.501c0.139-0.334,0.212-0.73,0.721-0.678
		c0.047,0.005,0.146-0.09,0.15-0.145c0.076-0.949,0.976-1.535,1.086-2.467c0.008-0.072,0.083-0.158,0.061-0.209
		c-0.427-1.005,0.386-1.361,0.993-1.683c0.581-0.308,0.662-0.767,0.699-1.278c0.029-0.403,0.066-0.82-0.075-1.222
		c-0.079-0.227-0.005-0.444,0.114-0.642c0.177-0.295,0.327-0.647,0.278-0.951c-0.091-0.574,0.208-0.816,0.627-1.031
		c0.762-0.39,1.029-1.054,1.09-1.869c0.089-1.203,0.108-2.428,0.364-3.598c0.315-1.445,1.061-2.702,2.351-3.538
		C70.753,39.013,71.226,39.089,71.673,39.093z"/>
	<path fill="#FFFFFF" d="M107.125,59.621c0.074-0.129,0.131-0.273,0.226-0.385c0.601-0.714,0.939-1.506,0.786-2.461
		c-0.017-0.106-0.017-0.242,0.034-0.329c0.784-1.347,0.824-3.017,1.852-4.255c0.133-0.16,0.138-0.339,0.137-0.527
		c-0.002-0.28-0.034-0.566,0.006-0.84c0.079-0.537,0.085-1.137,0.859-1.205c0.275-0.024,0.311-0.35,0.476-0.509
		c0.431-0.412,0.633-0.861,0.452-1.456c-0.035-0.116-0.036-0.296,0.109-0.347c0.613-0.214,0.697-0.837,1.012-1.279
		c0.162-0.227,0.305-0.469,0.444-0.711c0.176-0.306,0.383-0.501,0.78-0.533c0.709-0.057,1.099-0.671,1.583-1.085
		c0.257-0.22,0.516-0.339,0.81-0.442c0.875-0.307,1.785-0.559,2.528-1.136c0.631-0.491,1.203-1.058,1.929-1.421
		c0.078-0.039,0.158-0.123,0.186-0.204c0.272-0.788,0.868-0.939,1.605-0.845c0.202,0.026,0.411,0.009,0.616,0
		c0.862-0.036,1.201-0.366,1.306-1.203c0.036-0.291,0.121-0.587,0.241-0.854c0.309-0.686,0.571-0.802,1.322-0.652
		c1.007,0.202,1.353,0.02,1.766-0.97c0.083-0.199,0.15-0.394,0.371-0.453c1.056-0.281,1.844-0.952,2.552-1.738
		c0.252-0.28,0.433-0.335,0.785-0.07c2.109,1.593,4.229,3.172,6.383,4.703c0.712,0.506,1.609,0.679,2.421,1
		c2.409,0.952,4.829,1.875,7.25,2.794c0.316,0.12,0.387,0.238,0.087,0.422c-0.531,0.325-1.001,0.723-1.704,0.76
		c-0.668,0.035-1.138,0.587-1.62,1.026c-0.183,0.167-0.032,0.296,0.06,0.434c0.475,0.714,0.952,1.427,1.419,2.147
		c0.384,0.592,0.113,1.315-0.563,1.531c-0.053,0.017-0.122,0.023-0.155,0.06c-0.567,0.643-1.362,0.972-2.015,1.479
		c-0.793,0.616-1.002,0.737-1.755,0.094c-0.182-0.155-0.392-0.209-0.599-0.285c-0.177-0.065-0.336-0.127-0.465-0.285
		c-0.487-0.597-1-0.577-1.477,0.052c-0.365,0.481-0.655,1.023-0.788,1.597c-0.204,0.878-0.373,1.766-0.305,2.692
		c0.073,0.985,0.372,1.901,0.719,2.798c0.259,0.668,0.171,1.194-0.326,1.669c-0.269,0.257-0.532,0.541-0.848,0.723
		c-1.272,0.731-2.085,1.893-2.906,3.043c-0.624,0.873-1.529,1.404-2.339,2.053c-0.827,0.663-1.718,1.256-2.325,2.156
		c-0.094,0.139-0.242,0.263-0.28,0.415c-0.241,0.961-1.097,1.245-1.81,1.694c-1.226,0.771-2.562,1.387-3.586,2.45
		c-0.55,0.571-0.866,1.26-0.856,2.059c0.004,0.37-0.143,0.568-0.48,0.638c-0.782,0.162-1.572,0.29-2.348,0.477
		c-0.543,0.131-0.743-0.165-0.882-0.585c-0.226-0.682-0.301-1.422-0.887-1.952c-0.564-0.511-1.101-0.569-1.581,0.018
		c-0.693,0.848-1.755,0.989-2.623,1.495c-0.415,0.242-0.903,0.356-1.324,0.588c-0.285,0.157-0.503,0.389-0.561,0.78
		c-0.084,0.566-1.205,1.404-1.804,1.437c-0.166,0.009-0.387-0.032-0.49,0.057c-0.885,0.77-2.169,0.754-3.03,1.59
		c-0.689,0.669-1.637,0.956-2.443,1.458c-0.205,0.128-0.421,0.23-0.611,0.39c-0.184,0.155-0.462,0.381-0.638,0.291
		c-0.522-0.266-0.802,0.036-1.135,0.324c-0.1,0.086-0.306,0.146-0.419,0.103c-0.542-0.207-0.999,0.087-1.449,0.257
		c-0.991,0.375-1.975,0.513-2.997,0.189c-0.193-0.061-0.319,0.055-0.462,0.134c-0.508,0.281-1.073,0.215-1.449-0.221
		c-0.264-0.307-0.532-0.179-0.813-0.088c-1.198,0.389-0.873,0.335-1.062-0.705c-0.115-0.632-0.058-1.296-0.122-1.948
		c-0.076-0.776-0.107-1.556-0.226-2.328c-0.055-0.359,0.009-0.614,0.458-0.655c0.868-0.08,1.73-0.261,2.598-0.289
		c1.768-0.055,3.517-0.38,5.288-0.358c0.332,0.004,0.417-0.206,0.391-0.482c-0.062-0.658,0.092-1.256,0.466-1.799
		c0.031-0.046,0.068-0.101,0.069-0.152c0.025-1.408,1.063-2.257,1.816-3.254c0.715-0.947,0.953-2.082,1.354-3.155
		c0.155-0.415,0.207-0.866,0.445-1.25c0.433-0.671,0.636-1.374,0.31-2.155c-0.036-0.087-0.044-0.188-0.003-0.273
		c0.207-0.428,0.149-0.871,0.093-1.317C106.934,60.024,106.973,59.806,107.125,59.621z"/>
	<path fill="#FFFFFF" d="M57.911,10.696c2.314,0.155,4.455,0.211,6.598,0.263c1.617,0.039,3.236,0.131,4.853,0.22
		c2.029,0.111,4.061,0.07,6.087,0.213c2.046,0.145,4.095,0.16,6.143,0.241c2.066,0.081,4.131,0.185,6.2,0.222
		c1.018,0.018,2.033,0.214,3.058,0.2c0.311-0.004,0.377,0.125,0.216,0.367c-0.293,0.441-0.478,0.991-1.101,1.116
		c-0.203,0.041-0.241,0.222-0.225,0.399c0.046,0.508-0.229,0.769-0.682,0.866c-0.399,0.086-0.468,0.29-0.313,0.64
		c0.059,0.133,0.08,0.287,0.097,0.433c0.066,0.594,0.241,1.024,0.965,1.113c0.58,0.071,0.816,0.602,0.726,1.216
		c-0.065,0.442,0.158,0.84,0.279,1.244c0.232,0.773,0.137,1.556,0.162,2.335c0.007,0.214-0.133,0.344-0.271,0.468
		c-0.704,0.634-0.877,1.485-0.954,2.365c-0.024,0.277-0.063,0.492-0.312,0.667c-0.688,0.482-0.88,1.068-0.614,1.884
		c0.118,0.363,0.221,0.683-0.231,0.883c-0.215,0.095-0.25,0.31-0.188,0.477c0.196,0.533-0.042,0.945-0.338,1.332
		c-0.484,0.631-0.696,1.428-1.269,2.008c-0.221,0.224-0.411,0.416-0.755,0.386c-0.199-0.017-0.422-0.057-0.594,0.093
		c-0.445,0.389-0.743,0.116-1.029-0.218c-0.169-0.197-0.318-0.416-0.506-0.593c-0.304-0.285-0.83-0.268-1.108,0.032
		c-0.633,0.685-1.268,1.37-1.644,2.244c-0.107,0.248-0.284,0.43-0.512,0.576c-0.313,0.2-0.631,0.388-0.83,0.731
		c-0.142,0.244-0.438,0.317-0.684,0.338c-1.256,0.111-2.108,0.957-3.036,1.65c-0.256,0.191-0.475,0.338-0.796,0.304
		c-0.612-0.064-1.118,0.12-1.572,0.558c-0.531,0.512-1.218,0.584-1.919,0.472c-0.598-0.096-1.151,0.033-1.673,0.306
		c-0.313,0.164-0.546,0.126-0.795-0.132c-0.423-0.438-0.909-0.674-1.552-0.445c-0.195,0.07-0.526,0.152-0.662-0.099
		c-0.117-0.216,0.121-0.404,0.243-0.585c0.355-0.524,0.701-1.056,1.076-1.565c0.238-0.322,0.273-0.654,0.124-0.998
		c-0.107-0.248-0.148-0.492-0.157-0.757c-0.023-0.66-0.269-0.85-0.89-0.613c-0.802,0.306-1.556,0.734-2.237,1.25
		c-0.71,0.538-1.358,1.161-2.017,1.765c-0.298,0.273-0.571,0.562-0.767,0.943c-0.25,0.488-0.732,0.746-1.271,0.533
		c-0.661-0.262-1.409-0.153-2.027-0.685c-0.513-0.442-1.67-0.166-2.227,0.337c-0.376,0.339-0.705,0.723-0.942,1.171
		c-0.188,0.354-0.504,0.573-0.849,0.516c-0.409-0.067-0.485-0.461-0.45-0.847c0.019-0.209-0.035-0.402-0.119-0.596
		c-0.111-0.256-0.209-0.521-0.28-0.79c-0.255-0.97-0.25-0.995-1.293-0.969c-0.523,0.013-0.724-0.179-0.787-0.693
		c-0.107-0.864-0.321-1.713-0.004-2.583c0.061-0.167-0.006-0.42-0.092-0.594c-0.401-0.813-0.36-1.714-0.546-2.569
		c-0.043-0.196-0.097-0.324-0.301-0.418c-0.929-0.428-1.035-0.97-0.344-1.77c0.3-0.347,0.553-0.675,0.524-1.181
		c-0.022-0.388-0.156-0.552-0.538-0.518c-0.542,0.049-0.724-0.218-0.712-0.738c0.026-1.099-0.094-2.19-0.2-3.284
		c-0.09-0.923,0.323-1.689,0.916-2.361c0.96-1.088,2.213-1.885,3.035-3.121c0.448-0.673,1.225-0.955,1.929-1.302
		c0.194-0.096,0.446-0.166,0.303-0.484c-0.335-0.745,0.008-1.428,0.246-2.098c0.11-0.309,0.272-0.614,0.367-0.93
		C57.032,10.9,57.33,10.476,57.911,10.696z"/>
	<path fill="#FFFFFF" d="M103.087,46.722c0.795,0.094,1.578-0.188,2.388-0.023c0.461,0.094,0.617-0.503,0.99-0.701
		c0.645-0.342,1.235-0.83,2.033-0.587c0.272,0.083,0.382-0.033,0.468-0.244c0.042-0.103,0.044-0.255,0.118-0.308
		c1.017-0.732,1.243-2.056,2.155-2.86c0.323-0.285,0.299-0.52-0.019-0.772c-0.332-0.264-0.523-0.608-0.645-1.018
		c-0.116-0.389-0.277-0.778-0.558-1.085c-0.356-0.389-0.331-0.783-0.11-1.227c0.19-0.381,0.324-0.789,0.492-1.181
		c0.139-0.326,0.27-0.656,0.629-0.824c0.155-0.072,0.283-0.227,0.295-0.392c0.057-0.797,0.724-1.142,1.208-1.598
		c0.276-0.26,0.533-0.501,0.703-0.844c0.301-0.607,0.754-0.954,1.438-1.198c0.612-0.218,1.232-0.712,1.298-1.53
		c0.05-0.615,0.337-1.181,0.366-1.802c0.005-0.1,0.066-0.24,0.145-0.286c0.502-0.292,0.527-0.788,0.653-1.282
		c0.242-0.95,0.731-1.807,1.243-2.641c0.205-0.334,0.448-0.22,0.703-0.031c1.404,1.042,2.814,2.077,4.222,3.113
		c2.353,1.732,4.705,3.464,7.06,5.193c0.656,0.482,0.653,0.489,0.09,1.068c-0.595,0.613-1.273,1.091-2.1,1.321
		c-0.376,0.105-0.574,0.306-0.708,0.686c-0.27,0.764-0.517,0.868-1.006,0.744c-1.197-0.305-2.22,0.466-2.346,1.706
		c-0.085,0.836-0.204,0.926-1.066,0.985c-0.425,0.029-0.832-0.158-1.269-0.027c-0.344,0.103-0.622,0.258-0.797,0.563
		c-0.247,0.433-0.552,0.791-1.025,0.99c-0.135,0.057-0.271,0.144-0.367,0.251c-1.049,1.169-2.456,1.638-3.912,2.005
		c-0.213,0.054-0.32,0.149-0.456,0.332c-0.373,0.5-0.791,0.995-1.496,1.033c-0.371,0.02-0.559,0.306-0.736,0.55
		c-0.348,0.48-0.702,0.964-0.915,1.528c-0.085,0.224-0.232,0.351-0.464,0.439c-0.444,0.169-0.6,0.481-0.464,0.975
		c0.174,0.629-0.301,1.334-0.958,1.435c-0.361,0.055-0.523,0.212-0.573,0.56c-0.039,0.275-0.22,0.557-0.18,0.811
		c0.173,1.118-0.434,1.962-0.927,2.847c-0.239,0.43-0.441,0.854-0.45,1.362c-0.006,0.34-0.126,0.681-0.338,0.935
		c-0.403,0.483-0.505,1.023-0.437,1.617c0.055,0.473-0.077,0.878-0.365,1.251c-0.193,0.25-0.368,0.516-0.533,0.786
		c-0.136,0.222-0.394,0.507-0.34,0.684c0.227,0.737-0.234,1.462,0.024,2.179c0.149,0.413,0.063,0.782-0.098,1.186
		c-0.331,0.826-0.639,1.667-0.87,2.525c-0.417,1.547-1.42,2.722-2.387,3.921c-0.251,0.311-0.513,0.548-0.39,1.02
		c0.079,0.302-0.128,0.605-0.272,0.89c-0.142,0.28-0.307,0.566-0.365,0.867c-0.174,0.89-0.164,0.822-1.027,0.931
		c-1.88,0.237-3.789,0.15-5.656,0.527c-0.418,0.084-0.852-0.02-1.28,0.092c-0.28,0.074-0.327-0.205-0.342-0.402
		c-0.122-1.537-0.228-3.076-0.349-4.613c-0.052-0.666-0.121-1.33-0.199-1.994c-0.059-0.5-0.024-0.919,0.402-1.308
		c0.808-0.739,1.705-1.38,2.414-2.235c0.262-0.316,0.833-0.337,1.017-0.743c0.472-1.043,1.312-1.801,2.043-2.623
		c0.632-0.71,0.706-1.655,1.257-2.356c0.791-1.006,1.511-2.076,2.481-2.932c0.114-0.101,0.206-0.208,0.246-0.363
		c0.346-1.334,1.374-1.814,2.591-2.038c0.208-0.038,0.403-0.079,0.567-0.211c0.269-0.217,0.528-0.46,0.408-0.847
		c-0.109-0.352-0.443-0.256-0.709-0.302c-0.823-0.141-1.743-0.113-2.443-0.489c-1.171-0.628-2.43-0.904-3.657-1.314
		c-0.224-0.075-0.261-0.21-0.176-0.435c0.26-0.691,0.422-1.451,1.374-1.529c0.124-0.01,0.235-0.172,0.353-0.264
		c0.265-0.225,0.553-0.414,0.867-0.566C102.422,46.425,102.775,46.378,103.087,46.722z"/>
	<path fill="#FFFFFF" d="M164.229,60.748c-0.096,0.515-0.461,0.724-0.924,0.855c-0.878,0.249-1.743,0.555-2.645,0.071
		c-0.173-0.093-0.394-0.11-0.597-0.134c-0.527-0.062-0.599,0.034-0.455,0.539c0.21,0.734,0.475,1.46,0.597,2.209
		c0.098,0.602-0.181,1.208-0.46,1.718c-0.241,0.44-0.845,0.415-1.32,0.452c-0.553,0.043-1.136-0.064-1.432,0.603
		c-0.044,0.099-0.256,0.137-0.398,0.175c-0.756,0.203-1.231,0.723-1.565,1.391c-0.074,0.147-0.164,0.224-0.294,0.177
		c-0.907-0.329-1.781,0.038-2.64,0.185c-1.008,0.172-2.06,0.297-2.965,0.87c-0.144,0.091-1.234-0.241-1.322-0.375
		c-0.076-0.116-0.001-0.209,0.034-0.313c0.226-0.678-0.149-1.27-0.865-1.357c-0.169-0.02-0.38,0.006-0.435-0.18
		c-0.144-0.48-0.503-0.755-0.865-1.053c-0.275-0.226-0.386-0.551-0.233-0.911c0.14-0.329-0.042-0.58-0.269-0.721
		c-0.293-0.181-0.467,0.115-0.634,0.306c-0.097,0.111-0.214,0.241-0.236,0.376c-0.158,0.988-1.039,1.111-1.701,1.558
		c-0.875,0.59-1.925,0.81-2.748,1.469c-0.218,0.175-0.289,0.424-0.407,0.648c-0.245,0.463-0.578,0.72-1.135,0.758
		c-1.742,0.119-3.48,0.292-5.221,0.424c-0.928,0.07-1.864,0.072-2.791,0.093c-1.179,0.026-2.176,0.442-3.164,0.978
		c-0.541,0.294-1.057,0.62-1.47,1.096c-0.31,0.358-0.785,0.441-1.215,0.517c-0.424,0.075-0.431-0.284-0.351-0.568
		c0.247-0.884,0.783-1.535,1.578-2.014c1.292-0.778,2.553-1.607,3.832-2.407c0.264-0.165,0.441-0.371,0.557-0.667
		c0.455-1.166,1.426-1.873,2.37-2.599c0.723-0.556,1.492-1.06,2.157-1.678c0.484-0.449,0.861-1.025,1.232-1.581
		c0.547-0.82,1.232-1.472,2.064-1.999c0.581-0.368,1.1-0.825,1.42-1.462c0.218-0.435,0.28-0.854,0.098-1.34
		c-0.458-1.223-0.899-2.462-0.752-3.802c0.113-1.034,0.225-2.074,0.906-2.941c0.228-0.29,0.417-0.46,0.654-0.034
		c0.079,0.142,0.192,0.254,0.337,0.274c0.527,0.073,0.924,0.397,1.323,0.693c0.492,0.364,0.899,0.345,1.344-0.074
		c0.238-0.224,0.489-0.454,0.817-0.567c0.324-0.111,0.485-0.045,0.401,0.325c-0.041,0.181-0.053,0.396-0.161,0.529
		c-0.378,0.466-0.302,0.918-0.01,1.367c0.647,0.994,0.231,2.011,0.06,3.013c-0.096,0.561-0.044,1.117-0.062,1.675
		c-0.011,0.33,0.154,0.28,0.337,0.114c0.414-0.376,0.837-0.742,1.24-1.129c0.704-0.677,1.842-0.683,2.557,0.004
		c1.009,0.97,2.022,1.937,3.022,2.916c0.241,0.236,0.402,0.286,0.759,0.122c0.946-0.435,1.647-1.186,2.487-1.752
		c0.504-0.34,1.13-0.503,1.451-1.097c0.099-0.183,0.29-0.107,0.45-0.026c0.408,0.206,0.857,0.206,1.253,0.058
		c0.461-0.172,0.826-0.105,1.191,0.18c0.232,0.182,0.467,0.296,0.762,0.1c0.331-0.22,0.121-0.475,0.047-0.696
		c-0.099-0.296-0.093-0.59-0.071-0.886c0.016-0.21,0.1-0.381,0.359-0.43c0.378-0.072,0.662-0.327,0.944-0.573
		c0.144-0.126,0.251-0.364,0.506-0.191c0.236,0.16,0.45,0.33,0.428,0.666c-0.061,0.92,0.208,1.061,1.004,1.488
		c0.84,0.451,1.467,0.31,2.212-0.104c0.506-0.281,1.363,0.127,1.639,0.668c0.025,0.05,0.051,0.104,0.091,0.14
		c0.728,0.661,0.483,1.378,0.143,2.117c-0.24,0.522-0.411,1.081-0.943,1.404c-0.249,0.089-0.484,0.074-0.737-0.024
		C164.851,60.173,164.609,60.26,164.229,60.748z"/>
	<path fill="#FFFFFF" d="M36.975,11.909c0.081-0.157-0.101-0.273-0.231-0.395c-0.422-0.395-0.84-0.794-1.281-1.166
		c-0.602-0.507-0.824-1.224-1.096-1.913c-0.075-0.19-0.128-0.426,0.035-0.581c0.139-0.132,0.319,0.024,0.472,0.069
		c1.926,0.574,3.847,1.163,5.774,1.734c0.848,0.251,1.737,0.227,2.602,0.245c2.365,0.05,4.714,0.351,7.08,0.389
		c1.204,0.02,2.408,0.18,3.619,0.208c0.759,0.017,1.515,0.139,2.273,0.208c0.501,0.045,0.214,0.369,0.14,0.51
		c-0.348,0.663-0.588,1.362-0.785,2.079c-0.078,0.285-0.155,0.563-0.069,0.872c0.086,0.308-0.04,0.541-0.361,0.657
		c-1.068,0.384-1.829,1.093-2.335,2.115c-0.352,0.711-1.084,1.066-1.673,1.537c-1.29,1.032-1.846,2.313-1.577,3.947
		c0.057,0.348-0.042,0.71,0.095,1.054c0.056,0.139-0.021,0.267-0.133,0.342c-0.745,0.496-1.53,0.915-2.407,1.122
		c-0.163,0.038-0.358-0.077-0.541-0.101c-0.476-0.063-0.878-0.412-1.443-0.203c-0.285,0.105-0.725-0.117-1.014-0.376
		c-0.646-0.578-1.38-0.711-2.203-0.48c-0.156,0.044-0.332,0.06-0.493,0.04c-0.42-0.053-0.643,0.175-0.733,0.53
		c-0.101,0.398-0.368,0.426-0.682,0.373c-0.691-0.117-1.379-0.247-2.067-0.376c-0.045-0.008-0.122-0.068-0.118-0.087
		c0.17-0.649-0.658-0.759-0.7-1.32c-0.028-0.365-0.231-0.111-0.38-0.027c-0.968,0.551-1.731,1.393-2.741,1.895
		c-0.362,0.18-0.754,0.133-1.111,0.328c-0.348,0.19-0.648,0.381-0.734,0.775c-0.12,0.554-0.504,0.832-0.973,1.067
		c-0.431,0.215-0.873,0.436-0.934,1.015c-0.018,0.172-0.192,0.261-0.343,0.346c-0.308,0.174-0.593,0.401-0.918,0.532
		c-1.592,0.638-2.7,1.895-3.9,3.03c-0.331,0.314-0.691,0.249-1.047,0.223c-0.378-0.027-0.747-0.135-0.747-0.646
		c0-0.118-0.1-0.21-0.22-0.221c-0.403-0.035-0.763-0.081-0.838-0.608c-0.021-0.145-0.301-0.079-0.464-0.081
		c-0.846-0.011-1.344-0.383-1.641-1.2c-0.236-0.647-0.504-1.283-0.742-1.93c-0.085-0.231-0.225-0.39-0.449-0.462
		c-0.55-0.177-0.653-0.603-0.531-1.072c0.195-0.755-0.027-1.528,0.154-2.281c0.043-0.179-0.105-0.358-0.259-0.472
		c-0.41-0.302-0.156-0.404,0.142-0.47c1.014-0.227,2.032-0.467,3.07-0.513c0.485-0.021,0.897-0.178,1.333-0.326
		c0.204-0.069,0.226-0.193,0.251-0.374c0.078-0.56,0.42-0.786,0.969-0.668c0.876,0.188,1.102-0.059,1.755-0.663
		c0.793-0.732,1.46-1.793,2.788-1.698c0.216,0.015,0.373,0.039,0.505,0.255c0.349,0.57,1.336,0.841,1.954,0.522
		c0.379-0.196,0.714-0.185,1.122-0.097c0.521,0.111,1.056,0.086,1.604-0.053c1.096-0.279,2.073-0.877,3.164-1.138
		c0.913-0.219,1.441-0.962,2.16-1.44c0.22-0.146,0.435-0.328,0.684-0.366c1.208-0.187,1.562-1.222,1.167-2.407
		c-0.105-0.317-0.286-0.62-0.332-0.943c-0.083-0.579-0.388-0.546-0.793-0.375c-0.258,0.108-0.54,0.173-0.774,0.318
		c-0.687,0.424-1.293,0.283-1.881-0.194C37.019,12.378,36.811,12.267,36.975,11.909z"/>
	<path fill="#FFFFFF" d="M35.327,44.367c-0.585-0.331-0.774-0.933-0.999-1.499c-0.151-0.379-0.369-0.541-0.794-0.536
		c-1.089,0.012-1.323-0.187-1.441-1.239c-0.039-0.347-0.165-0.479-0.489-0.552c-0.624-0.14-1.052-0.912-0.827-1.492
		c0.085-0.218,0.272-0.472,0.552-0.369c0.922,0.339,1.741-0.18,2.609-0.275c0.236-0.026,0.472-0.142,0.712-0.095
		c1.312,0.254,2.406-0.412,3.55-0.845c0.231-0.087,0.442-0.202,0.685-0.164c0.541,0.086,0.922-0.127,1.106-0.622
		c0.113-0.303,0.247-0.246,0.452-0.131c0.43,0.24,0.783,0.526,0.976,1.017c0.212,0.54,0.834,0.844,1.408,0.717
		c0.79-0.175,1.565-0.259,2.373-0.083c0.595,0.13,1.107-0.268,1.638-0.455c0.739-0.261,1.446-0.415,2.236-0.248
		c0.738,0.156,1.443,0.01,2.018-0.541c0.278-0.266,0.571-0.37,0.958-0.174c0.325,0.165,0.7,0.061,1.052,0.065
		c0.377,0.004,0.579,0.133,0.631,0.539c0.086,0.661,0.303,1.298,0.348,1.972c0.027,0.404,0.672,0.845,1.099,0.796
		c0.156-0.018,0.25,0.022,0.342,0.122c0.548,0.597,0.917,1.301,1.206,2.05c0.06,0.157,0.074,0.353-0.057,0.479
		c-0.356,0.341-0.242,0.764-0.107,1.097c0.37,0.912,0.005,1.717-0.295,2.52c-0.142,0.379-0.229,0.652,0.141,0.913
		c0.227,0.16,0.225,0.324,0.053,0.558c-0.695,0.949-0.972,2.143-1.786,3.035c-0.219,0.24-0.413,0.557-0.404,0.955
		c0.01,0.445-0.429,0.365-0.678,0.419c-0.947,0.204-1.54,0.861-1.988,1.615c-0.25,0.421-0.703,0.6-0.922,1.024
		c-0.074,0.144-0.221-0.018-0.332-0.076c-0.663-0.34-1.339-0.41-2.102-0.35c-0.914,0.072-1.826,0.258-2.792-0.121
		c-0.907-0.356-1.957-0.356-2.948-0.483c-0.279-0.036-0.524-0.047-0.769-0.243c-0.592-0.473-1.33-0.401-1.995-0.298
		c-0.927,0.144-1.856,0.069-2.784,0.174c-1.698,0.192-3.412,0.237-5.117,0.366c-0.407,0.031-0.809,0.134-1.221,0.102
		c-0.138-0.011-0.338,0.079-0.395-0.105c-0.053-0.17,0.064-0.363,0.207-0.424c0.65-0.278,0.708-1.116,1.358-1.395
		c0.185-0.08,0.164-0.313,0.169-0.504c0.017-0.716,0.283-1.023,0.976-1.178c0.236-0.053,0.463-0.142,0.694-0.217
		c0.462-0.149,0.841-0.319,0.701-0.957c-0.073-0.336,0.05-0.695,0.423-0.897c0.37-0.2,0.406-0.659,0.677-0.942
		c0.272-0.413,0.368-0.9,0.564-1.344l0,0c0.118-0.299,0.211-0.598-0.002-0.896l0,0C35.893,44.79,35.615,44.574,35.327,44.367z"/>
	<path fill="#FFFFFF" d="M50.028,26.302c1.081,0.334,1.099,0.211,0.432,1.157c-0.608,0.861-0.6,1.265-0.035,2.108
		c0.041,0.061,0.08,0.157,0.135,0.171c0.829,0.204,0.611,0.915,0.683,1.456c0.068,0.507-0.027,1.033,0.407,1.451
		c0.124,0.12,0.197,0.362,0.084,0.577c-0.38,0.722-0.187,1.454,0.003,2.169c0.084,0.317-0.026,0.422-0.242,0.632
		c-0.862,0.838-1.901,0.944-3.001,0.825c-0.844-0.091-1.551,0.31-2.292,0.58c-0.508,0.185-0.992,0.279-1.525,0.134
		c-0.577-0.157-1.147,0.053-1.718,0.107c-0.521,0.049-0.865-0.034-1.088-0.586c-0.314-0.778-1.148-0.969-1.804-1.319
		c-0.32-0.171-0.591,0.129-0.588,0.526c0.002,0.296-0.111,0.475-0.427,0.448c-0.87-0.075-1.511,0.556-2.295,0.731
		c-0.649,0.145-1.263,0.459-1.978,0.318c-0.644-0.127-1.298,0.03-1.919,0.205c-0.455,0.128-0.874,0.296-1.356,0.123
		c-0.165-0.059-0.432-0.085-0.543,0.006c-0.44,0.363-0.664,0.042-0.93-0.223c-0.57-0.569-1.327-0.665-2.059-0.689
		c-0.781-0.025-1.453-0.102-1.733-0.969c-0.077-0.238-0.321-0.295-0.512-0.4c-0.628-0.344-0.897-1.048-0.639-1.72
		c0.173-0.45,0.38-0.88,0.39-1.386c0.012-0.598,0.467-0.944,0.871-1.302c0.055-0.049,0.148-0.064,0.187-0.12
		c0.908-1.316,2.471-1.664,3.706-2.494c0.303-0.204,0.491-0.409,0.596-0.747c0.125-0.4,0.344-0.713,0.851-0.56
		c0.161,0.048,0.206-0.056,0.288-0.176c0.294-0.429,0.63-0.827,0.781-1.342c0.086-0.293,0.383-0.386,0.618-0.423
		c1.08-0.171,1.92-0.739,2.669-1.491c0.13-0.13,0.297-0.222,0.444-0.336c0.164-0.127,0.269-0.115,0.298,0.111
		c0.038,0.296,0.447,0.415,0.368,0.775c-0.008,0.035,0.095,0.13,0.156,0.14c0.637,0.1,1.17,0.632,1.883,0.432
		c0.231-0.065,0.474,0.011,0.715,0.065c0.689,0.156,0.97,0.006,1.267-0.63c0.062-0.133,0.144-0.213,0.287-0.228
		c0.331-0.036,0.663-0.07,0.995-0.109c0.609-0.071,1.116,0.124,1.564,0.542c0.314,0.292,0.746,0.39,1.148,0.365
		c0.443-0.027,0.84,0.045,1.243,0.2c0.878,0.336,1.605-0.168,2.371-0.446c0.153-0.17,0.446-0.105,0.563-0.336l0,0
		c0.384,0.296,0.278,0.763,0.375,1.151C49.782,25.996,49.803,26.193,50.028,26.302z"/>
	<path fill="#FFFFFF" d="M105.635,51.855c-0.474,0.166-0.88,0.359-1.308,0.446c-0.836,0.171-1.369,0.725-1.686,1.427
		c-0.311,0.689-0.848,1.167-1.289,1.734c-0.571,0.734-1.179,1.439-1.75,2.172c-0.295,0.379-0.583,0.761-0.579,1.299
		c0.002,0.329-0.311,0.544-0.498,0.793c-0.446,0.595-0.903,1.186-1.448,1.699c-0.152,0.143-0.285,0.302-0.354,0.498
		c-0.186,0.525-0.558,0.825-1.045,1.093c-0.525,0.29-0.82,0.882-1.314,1.25c-0.402,0.299-0.754,0.664-1.133,0.996
		c-0.083,0.073-0.18,0.136-0.326,0.088c-0.071-1.457-0.33-2.909-0.253-4.381c0.024-0.452,0.217-0.775,0.56-1.123
		c0.55-0.559,1.19-1.085,1.456-1.885c0.131-0.394-0.198-1.427-0.667-1.722c-0.399-0.25-0.572-0.634-0.768-1.004
		c-0.441-0.832,0.108-1.428,0.591-1.979c0.536-0.612,0.93-1.228,0.86-2.092c-0.055-0.682-0.557-1.04-1.207-0.753
		c-0.592,0.262-1.132,0.555-1.565,1.106c-0.605,0.769-1.308,1.475-2.199,1.954c-0.701,0.377-1.281,0.894-1.639,1.628
		c-0.275,0.563-0.739,0.922-1.295,1.182c-0.594,0.277-1.048,0.703-1.345,1.294c-0.172,0.342-0.423,0.579-0.785,0.752
		c-0.579,0.276-1.036,0.708-1.315,1.312c-0.22,0.477-1.241,1.024-1.764,0.993c-0.404-0.024-0.436-0.366-0.445-0.607
		c-0.036-1.017,0.296-1.975,0.559-2.942c0.053-0.194,0.242-0.163,0.379-0.146c0.377,0.047,0.583-0.121,0.731-0.456
		c0.21-0.478,0.666-0.682,1.106-0.893c0.318-0.153,0.49-0.344,0.315-0.736c-0.217-0.485-0.146-0.906,0.293-1.292
		c0.373-0.328,0.67-0.747,0.978-1.143c0.255-0.329,0.556-0.503,0.968-0.37c0.222,0.072,0.443,0.063,0.665,0.06
		c0.868-0.011,0.872,0.148,1.059-0.813c0.047-0.243,0.196-0.412,0.425-0.548c0.71-0.42,1.43-0.799,2.267-0.881
		c0.439-0.043,0.614-0.265,0.556-0.706c-0.086-0.654,0.141-1.295,0.106-1.95c-0.016-0.299,0.231-0.468,0.4-0.649
		c0.574-0.616,1.187-1.218,1.402-2.052c0.267-1.035,1.046-1.373,1.942-1.58c0.267-0.062,0.42-0.192,0.552-0.414
		c0.467-0.784,0.953-1.556,1.423-2.339c0.262-0.437,0.73-0.371,1.099-0.384c1.675-0.057,3.343-0.235,5.003-0.401
		c1.66-0.166,3.334-0.228,4.984-0.506c0.495-0.083,0.929-0.041,1.196,0.526c0.213,0.452,0.529,0.857,0.619,1.365
		c0.024,0.137,0.069,0.257,0.175,0.339c0.524,0.405,0.334,0.782-0.038,1.153c-0.173,0.172-0.38,0.335-0.432,0.576
		c-0.176,0.811-0.911,1.206-1.331,1.833c-0.111,0.166-0.294,0.15-0.46,0.137c-0.948-0.076-1.659,0.41-2.312,0.997
		c-0.238,0.214-0.426,0.358-0.776,0.257c-0.238-0.068-0.513-0.03-0.775,0.035c-0.403,0.1-0.815,0.167-1.126-0.23
		c-0.108-0.138-0.241-0.121-0.402-0.08c-0.543,0.138-1.084,0.275-1.519,0.657c-0.383,0.337-0.811,0.587-1.31,0.703
		c-0.266,0.062-0.386,0.231-0.488,0.479c-0.224,0.546-0.341,1.149-0.774,1.596c-0.279,0.289-0.151,0.432,0.181,0.528
		c1.019,0.293,2.036,0.593,3.05,0.899c0.72,0.217,1.273,0.831,2.085,0.853C104.466,51.522,105.03,51.609,105.635,51.855z"/>
	<path fill="#FFFFFF" d="M67.19,44.481c0.014,0.765-0.038,1.519-0.199,2.274c-0.107,0.501-0.345,0.838-0.783,1.078
		c-0.523,0.286-1.08,0.556-0.847,1.346c0.045,0.154-0.033,0.387-0.13,0.532c-0.485,0.721-0.306,1.486-0.206,2.255
		c0.045,0.346-0.042,0.671-0.352,0.886c-0.336,0.233-0.667,0.478-1.021,0.68c-0.4,0.228-0.541,0.577-0.458,0.985
		c0.16,0.78-0.045,1.433-0.583,1.995c-0.132,0.138-0.245,0.278-0.281,0.472c-0.013,0.072-0.045,0.199-0.077,0.202
		c-0.835,0.067-0.562,1.32-1.438,1.34c-0.103,0.002-0.141,0.122-0.15,0.214c-0.068,0.684-0.615,0.76-1.093,0.743
		c-0.622-0.021-0.865,0.306-1.031,0.799c-0.119,0.353-0.245,0.562-0.664,0.255c-0.352-0.258-1.165-0.083-1.472,0.242
		c-0.079,0.083-0.149,0.192-0.267,0.179c-0.363-0.041-0.472,0.196-0.589,0.469c-0.153,0.355-0.357,0.529-0.761,0.232
		c-0.337-0.248-0.789-0.145-1.185-0.231c-0.334-0.073-0.645-0.141-0.895-0.403c-0.305-0.319-0.46-0.663-0.163-1.045
		c0.43-0.552,0.167-1.145,0.14-1.72c-0.016-0.326-0.354-0.35-0.581-0.451c-0.92-0.41-1.278-2.075-0.508-2.701
		c0.595-0.483,0.738-1.25,1.33-1.739c0.451-0.372,0.906-0.531,1.442-0.607c0.334-0.048,0.649-0.096,0.497-0.605
		c-0.162-0.542,0.213-0.947,0.554-1.269c0.718-0.677,0.795-1.706,1.418-2.422c0.024-0.027,0.024-0.077,0.05-0.099
		c0.508-0.436,0.773-0.874,0.067-1.376c-0.103-0.074-0.11-0.239-0.036-0.365c0.386-0.663,0.2-1.474,0.56-2.143
		c0.12-0.223-0.009-0.402-0.124-0.567c-0.218-0.312-0.224-0.633-0.035-0.94c0.143-0.232,0.16-0.485,0.085-0.7
		c-0.261-0.746-0.396-1.558-1.011-2.138c-0.109-0.103-0.235-0.213-0.132-0.383c0.39-0.646,0.686-1.352,1.442-1.717
		c0.51-0.247,0.914-0.101,1.378,0.087c0.964,0.39,1.972,0.643,3.019,0.62c0.477-0.01,0.788-0.443,0.951-0.788
		c0.322-0.68,0.849-1.125,1.405-1.555c0.868-0.671,1.759-1.314,2.643-1.964c0.299-0.22,0.483-0.135,0.643,0.203
		c0.299,0.632,0.205,1.151-0.26,1.675c-0.331,0.373-0.565,0.831-0.843,1.251c-0.223,0.337-0.178,0.686,0.014,1.002
		c0.184,0.302,0.485,0.183,0.761,0.137c0.556-0.093,1.103-0.157,1.591,0.25c0.291,0.243,0.355,0.435,0.032,0.705
		c-0.911,0.761-1.177,1.89-1.625,2.913C67.278,43.201,67.331,43.852,67.19,44.481z"/>
	<path fill="#FFFFFF" d="M146.402,69.727c0.838,0.339,1.584,0.285,2.188,0.724c0.161,0.117,0.562,0.135,0.695,0.019
		c0.518-0.456,1.184-0.398,1.77-0.59c1.192-0.389,2.389-0.79,3.694-0.531c0.341,0.068,0.336,0.187,0.214,0.37
		c-0.435,0.649-0.064,1.197,0.191,1.754c0.355,0.777,0.613,1.593,1.008,2.358c0.342,0.661-0.014,1.607-0.63,2.03
		c-0.414,0.284-0.821,0.565-1.101,1.01c-0.207,0.329-0.364,0.644-0.3,1.04c0.079,0.49-0.159,0.847-0.465,1.2
		c-0.952,1.1-1.79,2.276-2.305,3.655c-0.171,0.459-0.496,0.8-0.936,0.985c-0.668,0.281-1.354,0.519-2.039,0.759
		c-0.249,0.087-0.424,0.091-0.451-0.297c-0.028-0.414-0.092-0.858-0.412-1.189c-0.164-0.169-0.106-0.331-0.005-0.508
		c0.565-0.983-0.087-2.316-1.189-2.437c-0.036-0.004-0.085-0.014-0.108,0.004c-0.847,0.665-1.288-0.403-1.967-0.473
		c-0.173-0.018-0.224-0.249-0.17-0.469c0.172-0.699,0.001-1.234-0.633-1.689c-0.534-0.382-0.895-1.003-1.615-1.13
		c-0.139-0.025-0.148-0.125-0.106-0.257c0.116-0.363-0.273-0.761-0.633-0.587c-0.833,0.401-1.74,0.667-2.467,1.274
		c-0.125,0.105-0.206,0.217-0.427,0.16c-0.576-0.149-1.021,0.17-1.004,0.756c0.024,0.841-0.403,1.289-1.125,1.598
		c-0.586,0.25-1.089,0.724-1.809,0.557c-0.183-0.042-0.4-0.03-0.5-0.198c-0.128-0.213,0.137-0.312,0.201-0.471
		c0.332-0.83,0.834-1.606,0.867-2.535c0.014-0.404,0.242-0.739,0.31-1.124c0.046-0.261-0.006-0.401-0.293-0.394
		c-0.847,0.021-1.694-0.034-2.517,0.283c-0.715,0.276-1.535-0.031-2.046-0.776c-0.28-0.408-0.634-0.638-1.083-0.714
		c-0.478-0.081-0.538-0.276-0.338-0.687c0.282-0.579,0.64-1.139,0.596-1.829c-0.008-0.132,0.11-0.173,0.228-0.201
		c0.236-0.057,0.466-0.116,0.715-0.111c2.275,0.043,4.538-0.08,6.789-0.433c0.511-0.08,1.036-0.04,1.558-0.097
		c0.621-0.068,0.994-0.471,1.183-0.903c0.285-0.651,0.811-0.893,1.36-1.138c0.854-0.382,1.706-0.761,2.498-1.265
		c0.675-0.429,0.679-0.422,1.024-1.014c0.215,0.851,1.178,1.049,1.342,1.893c0.054,0.278,0.318,0.303,0.547,0.248
		c0.257-0.062,0.439,0.004,0.571,0.223c0.152,0.253-0.002,0.431-0.17,0.584C146.914,69.338,146.701,69.49,146.402,69.727z"/>
	<path fill="#FFFFFF" d="M8.376,6.719C8.677,6.586,8.909,6.745,9.14,6.903c0.314,0.216,0.646,0.332,1.042,0.344
		c0.473,0.014,0.78-0.058,0.847-0.616c0.042-0.351,0.348-0.511,0.704-0.517c0.28-0.004,0.565-0.03,0.84,0.006
		c0.712,0.095,1.239-0.183,1.744-0.67c0.291-0.281,0.28-0.482,0.099-0.762c-0.213-0.329-0.385-0.677-0.465-1.062
		c-0.143-0.688-0.549-1.212-1.03-1.693c-0.212-0.211-0.405-0.433-0.339-0.828c2.213,0.68,4.393,1.352,6.574,2.019
		c1.528,0.467,3.058,0.926,4.587,1.391c1.438,0.438,2.872,0.885,4.311,1.317c1.598,0.479,3.198,0.956,4.803,1.41
		c0.489,0.139,0.801,0.339,0.869,0.909c0.086,0.727,0.43,1.386,0.781,2.024c0.24,0.437,0.718,0.632,1.072,0.955
		c0.523,0.477,0.508,0.47-0.125,0.766c-0.362,0.169-0.737,0.226-1.088,0.14c-0.439-0.108-0.771-0.018-1.039,0.309
		c-0.396,0.483-0.918,0.209-1.297,0.117c-1.001-0.244-1.834,0.1-2.674,0.512c-1.152,0.565-2.206,1.234-3.156,2.144
		c-0.879,0.842-1.09,0.638-1.562-0.235c-0.193-0.358-0.727-0.433-0.747-0.962c-0.002-0.066-0.613-0.019-0.809,0.247
		c-0.281,0.381-0.698,0.447-1.061,0.646c-0.822,0.452-1.36,0.298-2.039-0.231c-0.425-0.332-1.033-0.362-1.615-0.226
		c-1.044,0.244-2.145,0.296-3.05,0.973c-0.168,0.126-0.353,0.059-0.459-0.06c-0.53-0.595-1.226-0.565-1.915-0.517
		c-0.465,0.033-0.775-0.156-1.139-0.438c-0.586-0.454-1.073-0.931-1.496-1.56c-0.314-0.467-0.991-0.695-1.518-1.011
		c-0.639-0.383-0.674-0.633-0.047-1.02c0.513-0.316,0.699-0.756,0.668-1.312C9.361,8.566,9.235,7.741,8.57,7.115
		C8.461,7.013,8.363,6.897,8.376,6.719z"/>
	<path fill="#FFFFFF" d="M94.223,82.183c0-0.075-0.009-0.151,0.002-0.224c0.037-0.261-0.146-0.664,0.198-0.74
		c0.441-0.097,0.884-0.5,1.392-0.01c0.363,0.349,0.962,0.529,1.387,0.253c0.582-0.38,1.177-0.163,1.703-0.129
		c0.713,0.045,1.319-0.135,1.942-0.351c0.445-0.154,0.88-0.271,1.356-0.273c0.705-0.004,1.293-0.564,2.029-0.457
		c1.154-0.855,2.506-1.388,3.653-2.254c0.459-0.346,0.906-0.702,1.525-0.731c0.24-0.012,0.443-0.166,0.646-0.309
		c0.371-0.261,0.779-0.373,1.244-0.47c0.564-0.118,1.213-0.363,1.586-1.024c0.475-0.842,0.984-1.748,2.186-1.728
		c0.16,0.003,0.327-0.093,0.425-0.244c0.166-0.256,0.442-0.39,0.698-0.433c0.568-0.095,0.913-0.47,1.281-0.84
		c0.523-0.527,0.898-0.485,1.285,0.147c0.086,0.141,0.128,0.309,0.188,0.465c0.23,0.602,0.378,1.22,0.785,1.767
		c0.485,0.652,0.291,1.461-0.403,2.15c-0.741,0.736-1.511,1.442-2.268,2.161c-0.081,0.077-0.203,0.145-0.231,0.24
		c-0.256,0.878-0.996,0.893-1.707,1.003c-0.947,0.147-1.373,1.148-0.843,1.936c0.076,0.113,0.123,0.22,0.141,0.355
		c0.028,0.205-0.13,0.513,0.156,0.588c0.293,0.077,0.617,0.116,0.915-0.085c0.476-0.322,1.143-0.148,1.413,0.354
		c0.068,0.127,0.168,0.258,0.295,0.193c0.721-0.368,1.423,0.043,2.131,0.054c0.677,0.011,1.117-0.187,1.481-0.747
		c0.494-0.761,0.871-1.51,0.466-2.439c-0.097-0.222-0.297-0.6-0.017-0.699c0.31-0.11,0.679-0.202,1.067-0.082
		c1.055,0.327,0.841,1.237,0.934,1.978c0.114,0.908-0.28,1.757-0.515,2.607c-0.127,0.459-0.727,0.713-1.161,0.554
		c-0.931-0.342-1.773-0.014-2.617,0.199c-1.027,0.259-2.093,0.342-3.094,0.71c-0.271,0.1-0.548-0.013-0.731-0.188
		c-0.586-0.56-1.331-0.63-2.06-0.667c-1.254-0.063-2.501-0.029-3.55,0.842c-0.741,0.615-1.697,0.731-2.568,1.043
		c-0.155,0.055-0.36,0.113-0.432,0.235c-0.66,1.111-1.719,1.448-2.909,1.567c-0.236,0.024-0.479,0.093-0.695,0.193
		c-1.49,0.688-2.862,0.273-4.145-0.51c-0.725-0.442-1.36-1.035-2.021-1.577c-0.338-0.276-0.614-0.438-0.963,0.01
		c-0.213,0.273-0.521,0.476-0.802,0.69c-0.231,0.176-0.45,0.172-0.43-0.187c0.046-0.824-0.109-1.634-0.141-2.453
		c-0.032-0.815-0.156-1.626-0.239-2.439C94.202,82.185,94.212,82.184,94.223,82.183z"/>
	<path fill="#FFFFFF" d="M128.733,71.459c0.185,0.705-0.332,1.154-0.512,1.703c-0.207,0.63-0.032,1.109,0.591,1.214
		c0.475,0.08,0.756,0.276,1.035,0.695c0.687,1.035,1.78,1.116,2.867,0.882c0.511-0.11,0.994,0.115,1.483-0.042
		c0.101-0.032,0.18,0.066,0.139,0.175c-0.111,0.291,0.06,0.655-0.089,0.877c-0.43,0.641-0.427,1.456-0.917,2.068
		c-0.518,0.648-0.32,1.075,0.441,1.259c0.94,0.226,1.754,0.066,2.511-0.519c0.413-0.32,0.697-0.253,0.925,0.27
		c0.266,0.609,0.648,1.161,0.804,1.826c0.092,0.392,0.34,0.665,0.78,0.79c0.584,0.166,0.994,0.643,1.482,0.982
		c0.199,0.138,0.198,0.281-0.006,0.493c-0.782,0.811-1.694,0.99-2.741,0.677c-0.236-0.071-0.514-0.147-0.692,0.047
		c-0.793,0.866-1.671,0.533-2.514,0.165c-0.355-0.155-0.585-0.199-0.805,0.136c-0.116,0.177-0.292,0.201-0.439,0.103
		c-0.79-0.523-1.699-0.438-2.57-0.489c-0.53-0.031-1.044-0.12-1.53-0.286c-0.483-0.165-0.935-0.19-1.418-0.069
		c-0.624,0.156-1.246,0.147-1.88,0.015c-0.545-0.114-1.109-0.192-1.665-0.119c-0.56,0.074-0.634-0.18-0.497-0.622
		c0.278-0.899,0.396-1.817,0.324-2.755c-0.047-0.605,0.099-1.303-0.714-1.575c-0.143-0.048-0.148-0.237-0.193-0.382
		c-0.134-0.424-0.408-0.515-0.753-0.232c-0.304,0.25-0.591,0.307-0.976,0.191c-0.521-0.157-0.704,0.08-0.644,0.647
		c0.043,0.409,0.107,0.8,0.24,1.194c0.202,0.602-0.195,1.768-0.751,2.067c-0.467,0.252-1.01,0.099-1.528,0.043
		c-0.85-0.092-1.581-0.591-2.43-0.665c-0.129-0.011-0.258-0.052-0.386-0.047c-0.306,0.012-0.695-0.137-0.858-0.35
		c-0.365-0.474-0.161-0.998,0.437-1.105c0.401-0.072,0.803-0.148,1.208-0.19c0.308-0.032,0.48-0.202,0.549-0.47
		c0.161-0.624,0.637-0.985,1.09-1.375c0.763-0.656,1.498-1.345,2.12-2.138c0.28-0.358,0.413-0.798,0.339-1.266
		c-0.059-0.377,0.121-0.546,0.466-0.611c0.602-0.114,1.204-0.231,1.802-0.361c0.327-0.071,0.657-0.151,0.905-0.407
		c0.08-0.082,0.173-0.145,0.295-0.139c1.013,0.048,1.792-0.409,2.506-1.085C127.169,72.101,127.929,71.749,128.733,71.459z"/>
	<path fill="#FFFFFF" d="M152.897,50.088c1.054,0.664,2.202,1.154,3.288,1.757c0.339,0.188,0.667,0.347,0.662,0.858
		c-0.003,0.348,0.356,0.554,0.662,0.696c0.523,0.244,1.055,0.473,1.595,0.678c0.22,0.083,0.276,0.156,0.213,0.398
		c-0.115,0.44-0.366,0.859-0.212,1.356c0.046,0.149-0.132,0.225-0.267,0.122c-0.297-0.226-0.593-0.152-0.902-0.044
		c-0.455,0.161-0.898,0.187-1.355-0.039c-0.339-0.168-0.673-0.175-0.904,0.232c-0.176,0.311-0.433,0.566-0.78,0.686
		c-1.056,0.364-1.628,1.406-2.63,1.856c-0.297,0.133-0.467,0.176-0.719-0.076c-0.911-0.907-1.851-1.785-2.776-2.678
		c-0.906-0.875-2.389-0.881-3.299-0.007c-0.04,0.039-0.074,0.089-0.121,0.116c-0.151,0.085-0.257,0.346-0.442,0.245
		c-0.176-0.096-0.017-0.302,0.007-0.461c0.089-0.587,0.146-1.175,0.314-1.752c0.131-0.451-0.131-0.878-0.321-1.276
		c-0.209-0.439-0.308-0.824-0.096-1.315c0.195-0.452,0.241-0.969,0.339-1.461c0.089-0.448,0.361-0.722,0.771-0.884
		c1.067-0.422,1.382-1.489,0.729-2.426c-0.341-0.488-0.656-0.994-0.985-1.491c-0.33-0.498-0.102-1.106,0.551-1.108
		c0.946-0.003,1.539-0.588,2.218-1.043c0.406-0.273,0.731-0.365,1.218-0.15c1.106,0.489,2.248,0.9,3.382,1.323
		c0.281,0.104,0.333,0.214,0.208,0.489c-0.585,1.287-0.198,1.639,0.661,2.37c0.248,0.3,0.202,0.555-0.082,0.815
		c-0.354,0.324-0.684,0.675-1.022,1.016C152.299,49.398,152.317,49.621,152.897,50.088z"/>
	<path fill="#FFFFFF" d="M36.561,12.843c0.958,0.758,1.962,1.02,3.087,0.336c0.344-0.209,0.558-0.108,0.652,0.343
		c0.101,0.481,0.409,0.916,0.211,1.449c-0.084,0.226-0.203,0.47-0.406,0.501c-1.075,0.165-1.712,1.003-2.53,1.565
		c-0.46,0.316-0.985,0.546-1.536,0.613c-0.476,0.058-0.844,0.349-1.288,0.472c-0.229,0.064-0.474,0.155-0.709,0.24
		c-0.774,0.282-1.549,0.155-2.328,0.104c-0.292-0.019-0.539,0.121-0.798,0.224c-0.618,0.245-1.084,0.006-1.193-0.64
		c-0.044-0.26-0.234-0.43-0.405-0.352c-0.668,0.305-1.446,0.102-2.089,0.511c-0.702,0.447-1.325,0.999-1.867,1.609
		c-0.377,0.424-0.694,0.614-1.235,0.424c-0.517-0.182-1.42,0.25-1.58,0.78c-0.096,0.316-0.3,0.407-0.561,0.455
		c-1.039,0.191-2.081,0.374-3.121,0.558c-0.092,0.016-0.187,0.013-0.277,0.034c-0.867,0.203-0.875,0.208-1.245-0.556
		c-0.153-0.316-0.346-0.495-0.726-0.495c-0.37,0-0.691-0.149-0.813-0.553c-0.138-0.457-0.563-0.478-0.909-0.521
		c-0.528-0.066-0.713-0.441-0.854-0.836c-0.095-0.266-0.086-0.561,0.367-0.552c0.384,0.008,0.686-0.271,1.036-0.395
		c0.212-0.075,0.264-0.296,0.25-0.518c-0.022-0.371,0.062-0.747-0.06-1.112c-0.181-0.537,0.061-0.891,0.543-1.053
		c0.898-0.303,1.828-0.511,2.771-0.585c0.35-0.028,0.727,0.13,1.026,0.378c0.849,0.704,1.019,0.729,1.897,0.183
		c0.212-0.131,0.417-0.134,0.638-0.142c0.166-0.006,0.329,0.011,0.49-0.076c0.183-0.099,0.264-0.503,0.394-0.386
		c0.306,0.274,0.791,0.249,0.985,0.734c0.249,0.623,0.924,0.737,1.554,0.431c0.609-0.296,0.97-0.86,1.481-1.256
		c1.043-0.808,2.251-1.312,3.469-1.771c0.428-0.161,0.92,0.058,1.374,0.135c0.526,0.089,1.003,0.118,1.385-0.328
		c0.153-0.18,0.355-0.184,0.564-0.175c0.425,0.119,0.818,0.079,1.232-0.114c0.298-0.139,0.715-0.375,0.884,0.218
		C36.347,12.81,36.493,12.776,36.561,12.843z"/>
	<path fill="#FFFFFF" d="M170.961,51.278c-0.027,1.051-0.351,1.899-1.041,2.596c-0.276,0.279-0.54,0.573-0.834,0.831
		c-0.406,0.356-0.614,0.739-0.339,1.274c0.159,0.31-0.001,0.598-0.163,0.836c-0.296,0.434-0.752,0.411-1.048-0.023
		c-0.073-0.107-0.122-0.231-0.181-0.347c-0.534-1.054-1.291-1.329-2.38-0.865c-0.189,0.08-0.379,0.158-0.563,0.249
		c-0.278,0.138-0.531,0.147-0.768-0.09c-0.147-0.147-0.32-0.253-0.544-0.249c-0.485,0.008-0.538-0.484-0.457-0.665
		c0.162-0.36-0.012-0.522-0.19-0.729c-0.109-0.128-0.233-0.243-0.353-0.36c-0.576-0.564-0.737-0.586-1.323-0.055
		c-0.341,0.309-0.571,0.402-0.979,0.038c-0.426-0.38-1.089-0.316-1.6-0.601c-0.439-0.245-0.955-0.391-0.819-1.069
		c0.037-0.184-0.124-0.227-0.251-0.314c-1.068-0.724-2.293-1.147-3.406-1.787c-0.699-0.402-0.704-0.417-0.109-0.986
		c0.335-0.32,0.644-0.677,0.918-1.05c0.331-0.45,0.166-0.895-0.511-1.533c-0.513-0.485-0.571-0.795-0.286-1.438
		c0.126-0.285,0.268-0.385,0.604-0.254c3.76,1.463,7.532,2.896,11.289,4.366c0.873,0.341,1.796,0.272,2.68,0.472
		c0.696,0.158,1.41,0.083,2.105,0.221c0.22,0.044,0.405,0.069,0.43,0.336C170.884,50.507,170.927,50.932,170.961,51.278z"/>
	<path fill="#FFFFFF" d="M169.405,56.19c-0.024-0.118-0.042-0.266-0.086-0.406c-0.081-0.259-0.022-0.43,0.19-0.631
		c0.43-0.409,0.833-0.855,1.195-1.325c0.558-0.724,0.904-1.535,0.819-2.482c-0.018-0.204-0.002-0.411-0.003-0.616
		c-0.003-0.684,0.032-0.714,0.682-0.46c0.504,0.197,1.011,0.377,1.536,0.51c0.313,0.08,0.569,0.223,0.668,0.59
		c0.504,1.88,1.461,3.575,2.233,5.345c0.2,0.459,0.199,0.713-0.305,0.969c-1.094,0.556-2.215,1.1-3.052,2.035
		c-0.522,0.584-1.228,0.437-1.861,0.558c-0.626,0.12-1.16,0.4-1.669,0.747c-0.422,0.288-0.52,0.77-0.563,1.226
		c-0.037,0.39-0.164,0.726-0.352,1.047c-0.375,0.642-0.75,1.285-1.159,1.906c-0.323,0.49-0.901,0.644-1.388,0.89
		c-0.636,0.321-1.157,0.714-1.499,1.355c-0.231,0.433-0.704,0.432-0.907-0.017c-0.315-0.695-0.767-1.192-1.468-1.528
		c-0.325-0.156-0.632-0.468-0.77-0.856c-0.06-0.17-0.165-0.318-0.305-0.389c-0.908-0.461-0.661-1.46-1.021-2.174
		c-0.078-0.154,0.034-0.28,0.251-0.208c0.299,0.098,0.601,0.236,0.907,0.252c0.947,0.048,1.821-0.295,2.697-0.597
		c0.095-0.033,0.204-0.135,0.233-0.228c0.198-0.63,0.573-0.769,1.223-0.642c0.673,0.132,1.381-0.383,1.67-1.104
		c0.2-0.499,0.496-0.961,0.594-1.502c0.08-0.445,0.298-0.761,0.755-0.945C169.203,57.287,169.326,56.757,169.405,56.19z"/>
	<path fill="#FFFFFF" d="M177.026,58.742c-0.016,0.659-0.293,1.326,0.073,1.975c0.072,0.127,0.084,0.336,0.224,0.368
		c0.583,0.133,0.497,0.582,0.472,0.978c-0.027,0.428,0.16,0.801,0.243,1.199c0.047,0.224,0.25,0.262,0.438,0.276
		c0.223,0.016,0.449-0.001,0.672,0.013c0.25,0.016,0.433,0.183,0.503,0.392c0.07,0.21-0.091,0.376-0.271,0.502
		c-0.517,0.363-1.035,0.722-1.688,0.79c-0.256,0.027-0.445,0.199-0.64,0.328c-0.659,0.436-1.4,0.575-2.158,0.671
		c-0.645,0.081-1.289,0.171-1.935,0.227c-0.387,0.034-0.594,0.176-0.545,0.592c0.039,0.331-0.067,0.519-0.448,0.548
		c-0.461,0.035-0.914,0.157-1.375,0.205c-0.499,0.052-0.812,0.444-0.623,0.916c0.151,0.377,0.046,0.566-0.258,0.791
		c-0.92,0.682-1.986,1.089-2.97,1.647c-0.251,0.142-0.449,0.037-0.589-0.147c-0.287-0.378-0.669-0.43-1.097-0.4
		c-0.186,0.013-0.379,0.025-0.559-0.012c-0.348-0.073-0.609-0.285-0.748-0.617c-0.14-0.335,0.12-0.521,0.315-0.709
		c0.5-0.481,0.959-0.99,1.279-1.614c0.428-0.836,1.339-1.021,2.049-1.471c0.337-0.214,0.681-0.395,0.858-0.767
		c0.391-0.825,1.034-1.504,1.366-2.365c0.054-0.141,0.097-0.273,0.115-0.423c0.129-1.057,0.74-1.806,1.792-1.732
		c1.19,0.084,1.901-0.538,2.677-1.206c0.738-0.634,1.611-1.065,2.464-1.518C177.005,57.997,177.02,58.026,177.026,58.742z"/>
	<path fill="#FFFFFF" d="M177.454,59.82c0.05-0.303,0.105-0.556,0.137-0.815c0.146-1.185-0.25-2.219-0.759-3.256
		c-0.598-1.218-1.179-2.449-1.619-3.737c-0.071-0.208-0.216-0.449-0.02-0.627c0.163-0.147,0.342,0.057,0.511,0.115
		c3.634,1.247,7.268,2.497,10.903,3.744c0.246,0.084,0.495,0.161,0.745,0.232c0.452,0.127,0.471,0.3,0.109,0.597
		c-1.106,0.908-2.303,1.737-3.27,2.777c-1.255,1.35-2.711,2.514-3.779,4.039c-0.227,0.324-0.495,0.581-0.871,0.139
		c-0.065-0.076-0.208-0.142-0.302-0.128c-0.717,0.111-0.662-0.352-0.661-0.823c0-0.35-0.069-0.701-0.112-1.051
		c-0.028-0.226-0.216-0.316-0.391-0.353C177.568,60.563,177.558,60.147,177.454,59.82z"/>
	<path fill="#FFFFFF" d="M163.666,68.821c-0.647,0.809-0.717,1.092-0.332,1.673c0.297,0.447,0.76,0.639,1.283,0.681
		c0.223,0.018,0.452-0.017,0.672,0.018c0.616,0.097,0.846,0.553,0.515,1.073c-0.329,0.517-0.648,1.068-1.088,1.48
		c-0.589,0.551-0.954,1.163-1.056,1.954c-0.055,0.42-0.164,0.629-0.67,0.323c-1.006-0.61-2.087-1.089-3.292-1.137
		c-0.655-0.026-1.237,0.346-1.892,0.417c-0.786,0.085-1.045-0.023-0.97-0.788c0.075-0.763-0.429-1.293-0.619-1.945
		c-0.083-0.284-0.207-0.561-0.345-0.824c-0.423-0.807-0.661-1.612-0.124-2.471c0.072-0.115,0.077-0.291,0.064-0.435
		c-0.045-0.501,0.252-0.747,0.652-0.925c0.405-0.181,0.87-0.192,1.159-0.665c0.148-0.242,0.604-0.203,0.941-0.228
		c0.822-0.062,1.613-0.208,1.913-1.147c0.062-0.193,0.07-0.405,0.145-0.592c0.111-0.276,0.292-0.37,0.461-0.046
		c0.339,0.651,0.817,1.14,1.495,1.441c0.357,0.158,0.59,0.442,0.673,0.841c0.042,0.2,0.135,0.384,0.304,0.517
		C163.949,68.248,163.994,68.508,163.666,68.821z"/>
	<path fill="#FFFFFF" d="M141.123,88.373c-0.293,0.025-0.469-0.097-0.566-0.365c-0.132-0.365-0.392-0.603-0.714-0.823
		c-0.524-0.358-0.507-1.006-0.7-1.538c-0.033-0.091,0.072-0.176,0.163-0.197c0.555-0.13,0.889-0.599,1.344-0.882
		c0.589-0.366,0.545-0.964,0.016-1.396c-0.525-0.428-1.08-0.792-1.698-1.065c-0.174-0.077-0.368-0.175-0.398-0.367
		c-0.134-0.841-0.688-1.481-1.028-2.223c-0.107-0.232-0.187-0.452-0.025-0.685c0.215-0.308,0.37-0.592,0.267-1.022
		c-0.073-0.305,0.237-0.352,0.509-0.259c0.35,0.12,0.543,0.04,0.784-0.313c0.386-0.565,1.123-0.68,1.713-0.984
		c0.04-0.021,0.177,0.04,0.182,0.075c0.08,0.542,0.504,0.534,0.906,0.635c0.338,0.085,0.624,0.331,0.858,0.603
		c0.181,0.209,0.334,0.429,0.596,0.57c0.287,0.154,0.275,0.451,0.215,0.744c-0.181,0.886-0.101,1.032,0.704,1.368
		c0.362,0.151,0.71,0.327,0.992,0.606c0.197,0.195,0.402,0.276,0.641,0.083c0.246-0.199,0.524-0.292,0.737-0.016
		c0.261,0.338,0.798,0.6,0.454,1.177c-0.273,0.458-0.296,0.869,0.038,1.342c0.435,0.614,0.231,1.419-0.391,1.832
		c-0.856,0.567-1.632,1.236-2.379,1.933c-0.512,0.477-1.179,0.532-1.776,0.771C142.106,88.161,141.606,88.245,141.123,88.373z"/>
	<path fill="#FFFFFF" d="M107.125,59.621c-0.15,0.344,0.018,0.687,0.008,1.033c-0.019,0.662-0.126,1.324-0.009,1.989
		c0.099,0.564-0.227,0.964-0.561,1.354c0.269-0.682,0.425-1.358,0.245-2.112c-0.126-0.529,0.168-1.086,0.014-1.653
		C106.771,60.051,106.866,59.748,107.125,59.621z"/>
	<path fill="#FFFFFF" d="M152.897,50.088c-0.606-0.283-0.702-0.691-0.261-1.139c0.352-0.358,0.692-0.733,1.072-1.06
		c0.288-0.247,0.337-0.504,0.199-0.829c0.351,0.248,0.288,0.527,0.04,0.794c-0.304,0.326-0.627,0.633-0.941,0.949
		C152.409,49.398,152.405,49.446,152.897,50.088z"/>
	<path fill="#FFFFFF" d="M36.561,12.843c-0.089-0.017-0.233-0.005-0.258-0.054c-0.269-0.536-0.657-0.315-1.005-0.149
		c-0.38,0.182-0.731,0.15-1.092-0.023c0.508,0.061,0.979-0.068,1.439-0.27c0.34-0.149,0.676-0.283,0.738,0.295
		C36.39,12.715,36.499,12.776,36.561,12.843z"/>
	<path fill="#FFFFFF" d="M50.028,26.302c-0.267-0.012-0.306-0.187-0.349-0.414c-0.083-0.428-0.216-0.846-0.328-1.268
		c0.044-0.084,0.094-0.183,0.198-0.173c0.201,0.02,0.123,0.193,0.141,0.307C49.772,25.277,49.684,25.837,50.028,26.302z"/>
	<path fill="#FFFFFF" d="M164.229,60.748c0.24-0.547,0.669-0.764,1.169-0.485c0.256,0.143,0.485,0.121,0.733,0.145
		c-0.228,0.205-0.499,0.143-0.736,0.065C164.937,60.322,164.562,60.418,164.229,60.748z"/>
	<path fill="#FFFFFF" d="M103.087,46.722c-0.59-0.408-1.054-0.016-1.53,0.251c-0.124,0.07-0.213,0.202-0.377,0.198
		c0.287-0.49,0.788-0.633,1.281-0.772C102.749,46.317,102.956,46.465,103.087,46.722z"/>
	<path fill="#FFFFFF" d="M67.19,44.481c-0.111-0.53,0.18-1.05,0.038-1.587c-0.028-0.108,0.067-0.246,0.185-0.322
		C67.418,43.217,67.442,43.865,67.19,44.481z"/>
	<path fill="#FFFFFF" d="M36.001,46.049c-0.111,0.48-0.162,0.986-0.564,1.344C35.581,46.927,35.707,46.452,36.001,46.049z"/>
	<path fill="#FFFFFF" d="M35.999,45.153c0.419,0.298,0.228,0.597,0.002,0.896C36,45.75,36,45.452,35.999,45.153z"/>
	<path fill="#FFFFFF" d="M163.666,68.821c0.173-0.291,0.155-0.555-0.111-0.783C164.189,68.316,164.201,68.4,163.666,68.821z"/>
	<path fill="#FFFFFF" d="M35.327,44.367c0.383,0.126,0.661,0.342,0.673,0.785C35.775,44.891,35.551,44.629,35.327,44.367z"/>
	<path fill="#FFFFFF" d="M49.35,24.621c-0.067,0.314-0.353,0.261-0.563,0.336C48.89,24.702,49.171,24.746,49.35,24.621z"/>
</g>
</svg>
